<?xml version="1.0" encoding="utf-8"?>
<!-- Generator: Adobe Illustrator 16.0.3, SVG Export Plug-In . SVG Version: 6.00 Build 0)  -->
<!DOCTYPE svg PUBLIC "-//W3C//DTD SVG 1.1//EN" "http://www.w3.org/Graphics/SVG/1.1/DTD/svg11.dtd">
<svg version="1.1" id="Layer_1" xmlns="http://www.w3.org/2000/svg" xmlns:xlink="http://www.w3.org/1999/xlink" x="0px" y="0px"
	 width="321.059px" height="76.972px" viewBox="0 0 321.059 76.972" enable-background="new 0 0 321.059 76.972"
	 xml:space="preserve">
<g>
	<path fill="#231F20" d="M51.07,41.146c-0.102-6.202,2.577-11.03,8.03-14.486c-3.076-4.472-7.611-6.986-13.609-7.548
		c-2.133-0.2-4.861,0.304-8.179,1.525c-3.569,1.323-5.579,1.981-6.024,1.981c-0.942,0-2.751-0.556-5.432-1.677
		c-2.675-1.118-4.957-1.677-6.841-1.677c-3.172,0.052-6.124,0.928-8.85,2.63c-2.727,1.704-4.907,4.031-6.542,6.975
		C1.539,32.531,0.5,36.903,0.5,41.984c0,4.574,0.766,9.146,2.303,13.723c1.438,4.372,3.275,8.208,5.503,11.509
		c1.981,3,3.723,5.185,5.205,6.559c2.135,2.133,4.313,3.152,6.547,3.048c1.437-0.053,3.319-0.585,5.65-1.605
		c2.179-0.961,4.362-1.444,6.545-1.444c2.032,0,4.137,0.481,6.321,1.444c2.428,1.02,4.412,1.526,5.949,1.526
		c2.281-0.1,4.412-1.091,6.397-2.97c0.691-0.613,1.448-1.451,2.266-2.518c0.943-1.243,1.849-2.514,2.716-3.812
		c0.722-1.119,1.405-2.263,2.045-3.431c0.688-1.257,1.296-2.556,1.822-3.889c0.246-0.559,0.468-1.129,0.668-1.714
		c0.197-0.584,0.396-1.179,0.594-1.79c-1.834-0.812-3.496-1.959-4.982-3.435C52.781,49.94,51.12,45.923,51.07,41.146L51.07,41.146z
		 M104.995,54.737h-0.36L89.532,20.224h-11.86v55.684h10.336V39.844h0.479l12.621,28.637h7.249l12.581-28.637h0.482v36.064h10.455
		V20.224h-11.778L104.995,54.737z M41.698,12.939c2.629-3.304,3.943-6.862,3.943-10.674V1.503c0-0.256-0.025-0.509-0.074-0.763
		c-1.835,0.102-3.78,0.687-5.839,1.752c-2.057,1.069-3.754,2.418-5.095,4.041c-2.676,3.205-4.016,6.633-4.016,10.293v0.722
		c0,0.231,0.025,0.471,0.075,0.728C34.808,18.682,38.477,16.902,41.698,12.939L41.698,12.939z M252.68,20.224h11.617v55.685H252.68
		V20.224z M299.384,29.075c6.89,0,10.534,5.304,10.534,11.016h11.141v-1.184c0-10.769-8.213-19.743-21.755-19.743
		c-14.503,0-23.155,9.545-23.155,25.824v6.283c0,16.273,8.572,25.7,23.114,25.7c13.902,0,21.796-9.101,21.796-19.216v-1.224h-11.14
		c0,5.754-3.564,10.526-10.453,10.526c-7.053,0-11.541-5.019-11.541-15.749v-6.278C287.926,34.337,292.455,29.076,299.384,29.075
		L299.384,29.075z M176.309,55.388c0,7.467-4.367,11.586-10.776,11.586c-6.45,0-10.816-4.079-10.816-11.586V20.224h-11.539V57.02
		c0,11.875,8.412,19.951,22.353,19.951c13.902,0,22.354-8.077,22.354-19.951V20.224h-11.576V55.388L176.309,55.388z M226.322,43.477
		l-8.292-1.875c-4.887-1.023-7.451-3.184-7.451-6.408c0-4.282,3.484-6.975,9.096-6.975c6.329,0,9.494,3.631,9.773,7.548h10.816
		c-0.12-9.833-8.331-16.686-20.552-16.686c-11.576,0-20.711,6.08-20.711,17.012c0,9.464,6.411,13.867,14.103,15.544l8.211,1.916
		c5.529,1.265,8.333,3.102,8.333,6.893c0,4.327-3.446,7.265-9.895,7.265c-6.931,0-10.577-3.673-10.896-7.794H197.72
		c0.163,7.874,5.37,17.053,21.476,17.053c13.54,0,21.914-6.731,21.914-17.668C241.105,49.186,234.334,45.229,226.322,43.477
		L226.322,43.477z"/>
</g>
</svg>
