<?xml version="1.0" encoding="utf-8"?>
<!-- Generator: Adobe Illustrator 16.0.3, SVG Export Plug-In . SVG Version: 6.00 Build 0)  -->
<!DOCTYPE svg PUBLIC "-//W3C//DTD SVG 1.1//EN" "http://www.w3.org/Graphics/SVG/1.1/DTD/svg11.dtd">
<svg version="1.1" id="Layer_1" xmlns="http://www.w3.org/2000/svg" xmlns:xlink="http://www.w3.org/1999/xlink" x="0px" y="0px"
	 width="2500px" height="723px" viewBox="0 0 2500 723" enable-background="new 0 0 2500 723" xml:space="preserve">
<path d="M621.381,530.375c-16.969,37.641-25.109,54.438-46.977,87.688c-30.5,46.469-73.5,104.258-126.789,104.781
	c-47.359,0.43-59.539-30.797-123.805-30.477c-64.242,0.344-77.648,31.008-124.992,30.578
	c-53.281-0.484-94.031-52.703-124.563-99.125c-85.297-129.852-94.219-282.234-41.625-363.227
	c37.375-57.539,96.375-91.227,151.852-91.227c56.492,0,91.992,30.953,138.664,30.953c45.297,0,72.883-31.008,138.188-31.008
	c49.336,0,101.633,26.906,138.906,73.289c-122.063,66.891-102.219,241.156,21.133,287.773H621.381z"/>
<path d="M411.834,117.391c23.711-30.445,41.734-73.422,35.195-117.367c-38.766,2.68-84.109,27.336-110.555,59.461
	c-24.008,29.164-43.836,72.43-36.141,114.492C342.654,175.273,386.428,150,411.834,117.391z"/>
<g>
	<path d="M837.928,323.992c0,26.383-20.063,47.656-51.461,47.656c-30.117,0-50.172-21.313-49.547-47.656
		c-0.625-27.57,19.43-48.266,50.172-48.266C817.842,275.727,837.303,296.422,837.928,323.992z M739.459,716.031V409.289h95.344
		v306.742H739.459z M995.982,373.555H882.459v-80.281h324.898v80.281h-115.406v342.477h-96L995.982,373.555z M1510.279,617.57
		c0,40.125,1.273,72.742,2.484,98.484h-82.789l-4.391-43.273h-1.906c-11.914,18.797-40.781,50.195-95.984,50.195
		c-62.109,0-107.891-38.922-107.891-133.633V409.359h95.977V574.32c0,44.531,14.422,71.492,47.664,71.492
		c26.367,0,41.406-18.18,47.664-33.234c2.484-5.641,3.094-13.164,3.094-20.695V409.359h96v208.227h0.078V617.57z M1586.771,507.133
		c0-38.289-1.258-70.898-2.492-97.828h82.789l4.383,42.031h1.914c12.531-19.422,43.859-48.922,94.703-48.922
		c62.727,0,109.727,41.398,109.727,131.711v181.906h-95.313V546.047c0-39.492-13.813-66.484-48.281-66.484
		c-26.367,0-42.031,18.219-48.273,35.711c-2.5,6.273-3.758,15.047-3.758,23.836v176.883h-95.344V507.148l-0.047-0.008
		L1586.771,507.133z M2027.701,593.094c3.133,39.516,42.031,58.344,86.563,58.344c32.617,0,58.969-4.391,84.656-12.531l12.555,64.57
		c-31.344,12.555-69.617,19.43-111.039,19.43c-104.141,0-163.695-60.82-163.695-156.82c0-77.789,48.297-163.672,154.914-163.672
		c99.125,0,136.742,77.102,136.742,153.047c0,16.305-1.898,30.742-3.109,37.617L2027.701,593.094z M2139.975,527.828
		c0-23.18-10.063-62.086-53.953-62.086c-40.133,0-56.445,36.359-58.984,62.086H2139.975z M2284.834,632.609
		c17.602,10.625,53.953,23.18,82.172,23.18c28.867,0,40.781-10.063,40.781-25.734c0-15.664-9.422-23.188-45.172-35.117
		c-63.359-21.313-87.82-55.813-87.172-91.57c0-57.703,48.922-101,124.836-101c35.734,0,67.773,8.164,86.563,17.586l-16.945,65.867
		c-13.82-7.523-40.117-17.586-66.477-17.586c-23.18,0-36.383,9.422-36.383,25.086c0,14.438,11.922,21.977,49.555,35.133
		c58.336,20.063,82.797,49.563,83.422,94.703c0,57.094-45.156,99.734-132.977,99.734c-40.109,0-75.922-9.43-99.102-21.992
		l16.906-68.297L2284.834,632.609z"/>
</g>
</svg>
