<?xml version="1.0" encoding="utf-8"?>
<!-- Generator: Adobe Illustrator 16.0.3, SVG Export Plug-In . SVG Version: 6.00 Build 0)  -->
<!DOCTYPE svg PUBLIC "-//W3C//DTD SVG 1.1//EN" "http://www.w3.org/Graphics/SVG/1.1/DTD/svg11.dtd">
<svg version="1.1" id="Layer_1" xmlns="http://www.w3.org/2000/svg" xmlns:xlink="http://www.w3.org/1999/xlink" x="0px" y="0px"
	 width="965.921px" height="149.098px" viewBox="0 0 965.921 149.098" enable-background="new 0 0 965.921 149.098"
	 xml:space="preserve">
<path fill-rule="evenodd" clip-rule="evenodd" fill="#619AA9" d="M201.802,3.101c-5.541,6.51-8.794,14.395-12.9,21.746
	c-16.538,29.613-32.892,59.329-49.28,89.025c-1.089,1.974-2.067,3.431-4.81,3.423C89.875,117.16,44.938,117.142,0,117.098
	c0-1,0-2,0-3c1.463-0.487,1.728-1.93,2.346-3.046c16.191-29.213,32.43-58.4,48.48-87.69C55.03,15.691,60.097,8.454,63,0.098
	c46.333,0,92.667,0,139,0C201.934,1.099,201.868,2.1,201.802,3.101z"/>
<path fill-rule="evenodd" clip-rule="evenodd" fill="#373737" d="M882,149.098c0.052-36.977,0.199-73.954,0.038-110.93
	c-0.021-4.755,1.032-6.858,5.944-5.927c0.483,0.091,0.998,0.012,1.498,0.012c10.134,0,10.134,0,10.774,10.808
	c6.921-10.003,16.449-13.383,27.681-12.979c15.424,0.555,26.85,7.516,32.979,21.742c6.696,15.541,6.661,31.529-0.019,47.053
	c-10.276,23.886-41.143,28.654-58.628,9.361c-0.178-0.197-0.502-0.262-1.268-0.641c0,14.015,0,27.757,0,41.5
	C894.667,149.098,888.333,149.098,882,149.098z M900.521,75.563c-0.129,5.356,0.842,11.234,3.581,16.678
	c4.101,8.145,10.878,12.644,19.945,12.561c9.082-0.083,15.911-4.526,19.45-13.086c4.888-11.821,4.842-23.648-1.19-35.095
	c-4.277-8.114-11.205-12.112-20.419-11.465c-9.188,0.646-15.38,5.58-18.799,14.078C901.071,64.248,900.504,69.499,900.521,75.563z"
	/>
<path fill-rule="evenodd" clip-rule="evenodd" fill="#373737" d="M553,0.098c0.059,38.127,0.101,76.254,0.213,114.381
	c0.007,2.34-0.676,3.44-3.105,3.166c-0.822-0.093-1.664-0.01-2.496-0.014c-3.496-0.016-7.316,0.854-10.407-0.273
	c-3.948-1.439-0.413-6.237-2.421-9.28c-10.513,12.781-24.104,14.027-38.484,9.788c-15.031-4.432-22.287-16.134-25.073-30.757
	c-2.58-13.539-1.981-27.007,4.939-39.311c11.49-20.428,38.96-24.066,55.987-7.712c0.436,0.418,0.892,0.813,2.389,2.174
	c-0.359-14.83,0.494-28.488-0.541-42.162C540.334,0.098,546.666,0.098,553,0.098z M535.138,74.301
	c0.204-5.497-0.759-11.039-3.12-16.271c-3.512-7.778-9.527-12.287-18.093-12.878c-8.89-0.613-16.254,2.615-20.394,10.657
	c-6.288,12.218-6.707,24.913-0.615,37.387c3.764,7.706,10.482,11.615,18.938,11.618c8.444,0.002,14.975-3.961,19.046-11.527
	C534.045,87.444,535.346,81.155,535.138,74.301z"/>
<path fill-rule="evenodd" clip-rule="evenodd" fill="#373737" d="M201.802,3.101c0.066-1.001,0.132-2.002,0.198-3.003
	c6.333,0,12.667,0,19,0c-1.076,13.778-0.124,27.567-0.505,41.148c1.392,0.945,1.735-0.147,2.168-0.668
	c13.87-16.665,45.051-13.508,56.056,7.688c9.266,17.849,9.254,36.411-0.036,54.167c-11.089,21.192-42.152,24.023-57.665,5.852
	c-0.158-0.186-0.512-0.203-0.776-0.298c-0.089,0.114-0.225,0.213-0.261,0.341c-0.838,2.964,1.538,7.956-1.195,8.695
	c-4.963,1.344-10.556,0.754-15.836,0.335c-2.017-0.16-1.08-2.832-1.084-4.343c-0.059-24.814-0.04-49.629-0.043-74.442
	C201.822,26.749,201.809,14.925,201.802,3.101z M266.429,75.662c0.203-6.34-1.588-13.914-4.507-19.172
	c-7.827-14.1-27.608-15.423-36.55-2.444c-7.527,10.924-7.184,31.352,0.707,42.105c8.816,12.015,27.063,11.494,35.173-0.998
	C265.103,89.222,266.178,82.554,266.429,75.662z"/>
<path fill-rule="evenodd" clip-rule="evenodd" fill="#FDFDFD" d="M63,0.098c-2.903,8.356-7.97,15.594-12.173,23.264
	c-16.05,29.29-32.29,58.478-48.48,87.69c-0.619,1.116-0.883,2.559-2.346,3.046C0,77.368,0.035,40.639-0.066,3.909
	C-0.075,0.968,0.37-0.032,3.668,0.001C23.444,0.196,43.223,0.098,63,0.098z"/>
<path fill-rule="evenodd" clip-rule="evenodd" fill="#373737" d="M762.077,43.313c13.622-19.517,42.213-15.828,49.385,0.106
	c5.159-6.115,10.851-11.208,18.949-12.661c6.509-1.168,12.935-1.042,19.251,0.88c9.919,3.017,15.786,10.861,16.057,23.354
	c0.429,19.819,0.087,39.654,0.17,59.482c0.01,2.392-0.745,3.269-3.133,3.191c-3.995-0.13-8.012-0.242-11.991,0.032
	c-3.187,0.219-3.866-0.962-3.84-3.964c0.143-16.328,0.069-32.658,0.064-48.987c0-1.499,0.029-3.003-0.075-4.496
	c-0.678-9.674-4.324-14.205-12.084-15.077c-9.87-1.109-16.586,3.029-19.216,11.975c-1.083,3.687-1.457,7.494-1.45,11.349
	c0.028,14.996-0.083,29.993,0.086,44.987c0.037,3.26-0.82,4.455-4.154,4.204c-4.621-0.349-10.596,1.399-13.552-0.894
	c-3.195-2.479-0.959-8.726-1.019-13.312c-0.169-12.994-0.054-25.992-0.065-38.989c-0.002-1.664-0.024-3.332-0.15-4.99
	c-0.468-6.116-2.019-11.516-8.784-13.635c-6.668-2.09-14.04-0.072-18.565,5.276c-3.72,4.396-5.159,9.54-5.137,15.247
	c0.063,15.496-0.121,30.994,0.119,46.486c0.062,3.987-1.104,5.173-5.021,5.145c-10.491-0.075-20.954,0.77-31.397,1.775
	c-8.443,0.813-13.014-1.767-16.522-9.606c-7.339,5.888-15.797,8.796-25.021,9.537c-8.736,0.701-16.854-0.951-24.08-6.226
	c-12.309-8.984-12.242-35.136,6.265-41.477c8.444-2.893,17.229-3.541,25.91-4.952c3.44-0.559,6.905-1.089,10.266-1.985
	c3.691-0.983,6.058-3.499,6.408-7.426c0.368-4.108-0.992-7.491-4.641-9.791c-10.694-6.741-25.478-2.561-30.532,8.812
	c-0.804,1.808-1.871,1.982-3.449,1.962c-3.665-0.048-7.369-0.344-10.987,0.068c-4.608,0.525-4.873-1.688-4.119-5.192
	c1.958-9.104,7.015-15.847,15.628-19.374c12.947-5.303,26.259-5.84,39.486-1.153c11.394,4.036,16.339,11.422,16.387,23.484
	c0.053,13.496,0.001,26.993,0.017,40.49c0.009,7.294,0.831,8.094,7.987,7.952c8.467-0.166,8.467-0.166,8.467-8.477
	c0-19.495,0.206-38.994-0.141-58.482c-0.09-5.052,1.476-6.542,6.088-5.717c0.322,0.059,0.665,0.008,0.998,0.008
	C761.44,32.253,761.44,32.253,762.077,43.313z M708.824,84.838c0-2.222-0.143-3.568,0.027-4.875
	c0.495-3.826-0.676-4.335-4.287-3.067c-3.698,1.298-7.762,1.605-11.688,2.191c-5.079,0.759-10.265,1.123-14.946,3.446
	c-4.391,2.179-6.558,5.923-6.747,10.805c-0.151,3.888,1.628,6.799,4.973,8.525c8.11,4.188,16.313,3.859,24.335-0.249
	C707.727,97.909,709.454,91.443,708.824,84.838z"/>
<path fill-rule="evenodd" clip-rule="evenodd" fill="#373737" d="M350.355,110.282c-10.829,8.035-22.931,11.211-36.195,8.799
	c-9.987-1.816-17.939-6.819-20.456-17.277c-2.284-9.489-1.373-18.681,6.692-25.603c5.374-4.612,12.096-6.061,18.88-7.097
	c6.909-1.056,13.852-1.896,20.747-3.036c6.843-1.131,9.842-3.989,10.059-9.118c0.239-5.678-2.861-9.341-9.479-10.966
	c-6.131-1.506-12.208-1.422-18.095,1.146c-3.359,1.467-6.278,3.806-6.921,7.371c-0.747,4.137-3.104,4.362-6.334,4.163
	c-2.655-0.164-5.329-0.03-7.995-0.034c-5.96-0.009-5.958-0.088-4.717-5.75c2.105-9.605,7.963-16.052,16.973-19.383
	c12.404-4.586,25.089-4.974,37.658-0.629c11.559,3.996,16.667,11.537,16.673,23.78c0.006,13.661-0.021,27.322,0.012,40.982
	c0.015,6.467,0.873,7.295,7.119,7.29c9.182-0.007,9.182-0.007,9.182-9.333c0-19.658,0.087-39.317-0.08-58.975
	c-0.03-3.522,0.969-4.929,4.462-4.376c0.65,0.103,1.331-0.004,1.997,0.018c3.631,0.116,8.258-1.074,10.626,0.717
	c2.607,1.972,0.236,6.873,1.086,10.517c1.278,0.463,1.417-0.895,1.942-1.547c9.665-12.005,26.335-15.583,40.138-8.594
	c8.722,4.417,13.236,11.97,13.496,21.271c0.556,19.976,0.25,39.974,0.396,59.962c0.018,2.475-0.91,3.325-3.216,3.053
	c-0.329-0.038-0.667,0.012-0.999-0.006c-4.625-0.245-10.555,1.912-13.53-0.824c-3.051-2.807-0.88-8.817-0.958-13.414
	c-0.236-13.819-0.027-27.649-0.429-41.462c-0.288-9.886-4.076-14.818-11.494-16.461c-8.435-1.869-17.228,1.894-21.392,9.308
	c-2.236,3.981-3.242,8.298-3.22,12.918c0.075,15.327-0.074,30.655,0.109,45.979c0.04,3.316-0.954,4.323-4.186,4.326
	c-10.821,0.012-21.607,0.798-32.378,1.867C358.358,120.678,353.674,117.838,350.355,110.282z M348.992,75.625
	c-6.216,2.32-12.123,3.044-18.064,3.763c-4.754,0.575-9.588,1.176-13.829,3.827c-4.306,2.691-5.779,6.718-5.473,11.521
	c0.283,4.438,3.336,6.815,7.074,8.171c2.782,1.01,5.785,1.686,8.735,1.908c13.086,0.986,21.557-6.973,21.557-20.012
	C348.993,81.975,348.992,79.147,348.992,75.625z"/>
<path fill-rule="evenodd" clip-rule="evenodd" fill="#373737" d="M635.679,61.105c-0.666,0-1.341-0.071-1.997,0.012
	c-4.476,0.565-7.299-0.233-8.874-5.548c-2.114-7.128-8.438-9.95-15.558-10.42c-8.47-0.559-15.845,2.27-19.809,9.928
	c-6.564,12.686-6.711,25.959-0.48,38.88c3.703,7.679,11.551,11.655,19.221,10.823c9.189-0.997,15.021-6.15,17.284-14.864
	c1-3.851,2.528-5.271,6.377-4.718c2.121,0.306,4.321,0.055,6.486,0.055c7.757,0,7.757,0,5.496,7.664
	c-5.326,18.053-19.536,27.954-38.773,27.018c-20.197-0.983-34.732-13.196-37.979-32.482c-2.777-16.505-1.392-32.395,10.496-45.45
	c13.94-15.311,42.889-16.265,58.152-2.25c4.944,4.541,7.626,10.368,9.134,16.833c0.757,3.246,0.287,5.134-3.687,4.564
	C639.373,60.892,637.511,61.105,635.679,61.105z"/>
<path fill-rule="evenodd" clip-rule="evenodd" fill="#FDFDFD" d="M266.429,75.662c-0.251,6.892-1.326,13.56-5.177,19.491
	c-8.111,12.492-26.357,13.013-35.173,0.998c-7.891-10.754-8.234-31.182-0.707-42.105c8.942-12.979,28.723-11.655,36.55,2.444
	C264.84,61.748,266.632,69.322,266.429,75.662z"/>
</svg>
