<?xml version="1.0" encoding="utf-8"?>
<!-- Generator: Adobe Illustrator 16.0.3, SVG Export Plug-In . SVG Version: 6.00 Build 0)  -->
<!DOCTYPE svg PUBLIC "-//W3C//DTD SVG 1.1//EN" "http://www.w3.org/Graphics/SVG/1.1/DTD/svg11.dtd">
<svg version="1.1" id="Layer_1" xmlns="http://www.w3.org/2000/svg" xmlns:xlink="http://www.w3.org/1999/xlink" x="0px" y="0px"
	 width="282.846px" height="62.836px" viewBox="0 0 282.846 62.836" enable-background="new 0 0 282.846 62.836"
	 xml:space="preserve">
<path fill-rule="evenodd" clip-rule="evenodd" fill="#010101" d="M109.775,31.406c0-10.06,0-20.12,0-30.18c0-0.184,0-0.368,0-0.552
	c0.003-0.761-0.058-0.656,0.65-0.656c4.764,0.003,9.528-0.01,14.292,0.024c2.105,0.016,4.208,0.162,6.259,0.696
	c1.832,0.476,3.497,1.253,4.791,2.688c0.962,1.064,1.581,2.321,2.024,3.674c0.517,1.58,0.782,3.211,0.971,4.857
	c0.367,3.216,0.404,6.447,0.411,9.677c0.015,7.115,0.005,14.23-0.006,21.347c-0.003,2.372-0.101,4.741-0.409,7.098
	c-0.229,1.745-0.573,3.462-1.171,5.124c-1.275,3.54-3.75,5.759-7.355,6.753c-2.302,0.635-4.66,0.852-7.036,0.862
	c-4.293,0.021-8.587,0.011-12.881,0.009c-0.617,0-0.54,0.071-0.54-0.566C109.775,51.977,109.775,41.69,109.775,31.406z
	 M118.24,31.373c0.002,0,0.005,0,0.009,0c0,1.964,0,3.927,0,5.89c0.001,5.889,0.003,11.778,0.005,17.666
	c0,0.602-0.071,0.553,0.56,0.555c1.309,0.001,2.618,0.002,3.926-0.002c0.654-0.001,1.305-0.036,1.955-0.136
	c2.1-0.323,3.56-1.436,4.318-3.439c0.422-1.116,0.634-2.279,0.782-3.456c0.235-1.871,0.288-3.752,0.291-5.634
	c0.011-7.892,0.015-15.785,0.009-23.678c-0.001-1.554-0.016-3.108-0.171-4.656c-0.118-1.182-0.295-2.35-0.706-3.473
	c-0.599-1.631-1.715-2.696-3.381-3.193c-1.046-0.313-2.119-0.441-3.205-0.457c-1.288-0.017-2.577-0.008-3.865-0.01
	c-0.573,0-0.522-0.056-0.525,0.528c0,0.144-0.001,0.286-0.001,0.429C118.24,15.996,118.24,23.685,118.24,31.373z"/>
<path fill-rule="evenodd" clip-rule="evenodd" fill="#010101" d="M274.664,31.746c0.91,0.114,1.804,0.286,2.667,0.58
	c2.547,0.863,4.042,2.658,4.628,5.254c0.238,1.061,0.364,2.136,0.367,3.222c0.007,5.174,0.002,10.349,0.017,15.522
	c0.005,2.005,0.112,4.005,0.465,5.986c0.024,0.137,0.067,0.278,0.008,0.421c-0.123,0.107-0.271,0.063-0.409,0.064
	c-2.495,0.002-4.989,0.002-7.485,0c-0.547,0-0.547-0.002-0.755-0.506c-0.327-0.792-0.387-1.63-0.369-2.469
	c0.128-5.541,0.026-11.084,0.06-16.626c0.006-1.207-0.019-2.414-0.229-3.607c-0.05-0.28-0.111-0.561-0.185-0.836
	c-0.479-1.821-1.79-2.642-3.542-2.922c-1.176-0.189-2.361-0.194-3.548-0.196c-0.777-0.001-1.555,0.007-2.331-0.003
	c-0.263-0.005-0.379,0.087-0.351,0.354c0.014,0.122,0.002,0.246,0.002,0.368c0,8.569,0,17.138-0.001,25.708
	c-0.001,0.849,0.102,0.733-0.759,0.735c-2.353,0.006-4.704,0.003-7.057,0c-0.718,0-0.66,0.096-0.66-0.647
	c0-10.942,0-21.884,0-32.824c0-9.469,0-18.938,0-28.406c0-0.123,0.001-0.246,0-0.369c-0.008-0.596,0.005-0.532,0.529-0.531
	c4.683,0.006,9.366-0.008,14.05,0.025c2.125,0.016,4.251,0.131,6.324,0.68c0.633,0.166,1.249,0.381,1.838,0.671
	c1.603,0.79,2.663,2.063,3.276,3.724c0.501,1.351,0.731,2.762,0.865,4.189c0.324,3.488,0.295,6.986,0.217,10.482
	c-0.042,1.838-0.21,3.67-0.713,5.457c-0.697,2.489-2.211,4.287-4.521,5.429c-0.68,0.335-1.377,0.621-2.095,0.859
	C274.855,31.571,274.729,31.586,274.664,31.746z M263.657,17.598c0,3.168,0,6.334,0,9.502c0,0.121,0.01,0.246-0.001,0.365
	c-0.021,0.216,0.071,0.286,0.282,0.281c1.938-0.03,3.881,0.08,5.815-0.152c2.352-0.282,3.493-1.324,4.001-3.633
	c0.198-0.9,0.293-1.813,0.346-2.73c0.145-2.614,0.123-5.229-0.01-7.842c-0.059-1.162-0.186-2.318-0.541-3.438
	c-0.426-1.339-1.319-2.124-2.7-2.354c-2.314-0.386-4.647-0.153-6.972-0.214c-0.155-0.004-0.217,0.082-0.22,0.225
	c-0.002,0.144-0.001,0.287-0.001,0.43C263.657,11.224,263.657,14.411,263.657,17.598z"/>
<path fill-rule="evenodd" clip-rule="evenodd" fill="#030202" d="M236.502,55.348c0.305,0,0.527,0,0.75,0
	c4.622,0,9.242-0.001,13.863,0.001c0.744,0.001,0.656-0.093,0.657,0.646c0.005,2.105,0.004,4.212,0,6.318
	c-0.001,0.496-0.006,0.503-0.495,0.503c-7.587,0.001-15.172,0.001-22.758,0.002c-0.588,0-0.514-0.012-0.514-0.617
	c0.001-7.319,0.002-14.639,0.001-21.959c0-13.146-0.001-26.294,0-39.44c0-0.898-0.129-0.781,0.774-0.782
	c7.423-0.003,14.845-0.003,22.268,0c0.821,0,0.722-0.11,0.723,0.706c0.006,2.066,0.005,4.131,0.001,6.195
	c0,0.6,0.071,0.563-0.555,0.563c-4.681,0-9.363,0-14.046,0c-0.671,0-0.67,0-0.67,0.689c0,6.094-0.001,12.188,0,18.279
	c0.001,0.822-0.089,0.727,0.712,0.727c4.253,0.004,8.505,0,12.759,0.002c0.817,0,0.678-0.049,0.68,0.689
	c0.008,2.024,0.006,4.048,0.003,6.073c-0.001,0.563,0.126,0.604-0.588,0.604c-4.253-0.003-8.507-0.002-12.758-0.002
	c-0.801,0-0.805,0-0.807,0.815c-0.001,6.502-0.001,13.004-0.001,19.506C236.502,55.005,236.502,55.146,236.502,55.348z"/>
<path fill-rule="evenodd" clip-rule="evenodd" fill="#020101" d="M142.57,31.373c0-10.203-0.001-20.408,0.002-30.611
	c0-0.852-0.113-0.742,0.75-0.743c7.443-0.003,14.887-0.002,22.329,0c0.773,0,0.69-0.087,0.693,0.679
	c0.002,2.087,0.001,4.172,0.002,6.259c0,0.546,0.05,0.526-0.535,0.526c-4.641-0.001-9.283,0-13.926,0c-0.122,0-0.245-0.002-0.368,0
	c-0.456,0.009-0.462,0.009-0.462,0.476c-0.001,6.237-0.001,12.474,0,18.711c0,0.506,0.006,0.509,0.564,0.509
	c4.254,0.002,8.506,0.002,12.759,0.002c0.123,0,0.246-0.002,0.368,0c0.459,0.01,0.467,0.01,0.468,0.48
	c0.004,2.106,0.004,4.213,0.004,6.319c-0.002,0.561-0.004,0.563-0.57,0.563c-3.68,0.001-7.361,0.001-11.043,0.001
	c-0.695,0-1.39-0.004-2.085,0.002c-0.457,0.004-0.461,0.012-0.465,0.483c-0.004,0.717-0.001,1.433-0.001,2.147
	c0,5.829-0.002,11.656,0.001,17.484c0.001,0.768-0.114,0.686,0.679,0.687c4.621,0.001,9.242,0.001,13.863,0.001
	c0.123,0,0.247,0.012,0.368-0.002c0.295-0.035,0.389,0.082,0.386,0.379c-0.016,1.104-0.006,2.208-0.006,3.312
	c0,1.126-0.012,2.251,0.007,3.375c0.005,0.331-0.112,0.442-0.423,0.405c-0.101-0.012-0.204-0.001-0.307-0.001
	c-7.443,0-14.887,0.001-22.33-0.001c-0.832,0-0.72,0.102-0.721-0.708C142.57,51.862,142.57,41.617,142.57,31.373z"/>
<path fill-rule="evenodd" clip-rule="evenodd" fill="#010101" d="M192.344,27.23c0.073,0.273,0.036,0.539,0.037,0.804
	c0.004,1.982,0.003,3.967,0.002,5.951c0,0.543,0.093,0.559-0.569,0.559c-4.295-0.001-8.591,0-12.885,0c-0.68,0-0.681,0-0.681,0.681
	c0,6.483,0,12.966,0,19.449c0,0.143,0.007,0.287-0.001,0.429c-0.011,0.188,0.074,0.256,0.253,0.246c0.144-0.007,0.286,0,0.429,0
	c4.602,0,9.203,0,13.805,0c0.122,0,0.248,0.016,0.368-0.003c0.337-0.052,0.406,0.109,0.404,0.415
	c-0.01,2.188-0.003,4.378-0.007,6.565c0,0.483-0.005,0.489-0.507,0.489c-4.027,0.001-8.057,0.001-12.085,0.001
	c-3.478,0-6.953,0-10.431,0c-0.123,0-0.246-0.012-0.368,0.001c-0.262,0.028-0.364-0.074-0.356-0.345
	c0.016-0.509,0.004-1.021,0.004-1.532c-0.001-17.772-0.001-35.544-0.002-53.315c0-2.311,0.001-4.622,0.002-6.933
	c0.002-0.144,0.003-0.286,0.002-0.429c-0.003-0.185,0.095-0.254,0.269-0.246c0.123,0.004,0.245,0,0.368,0c7.485,0,14.97,0,22.455,0
	c0.062,0,0.123-0.001,0.185,0c0.457,0.008,0.464,0.008,0.465,0.474c0.004,2.167,0.004,4.335,0,6.503
	c0,0.482-0.005,0.486-0.501,0.486c-4.684,0.002-9.367,0.001-14.051,0.001c-0.698,0-0.699,0.001-0.699,0.722
	c0,6.094-0.001,12.188,0.002,18.283c0,0.791-0.105,0.691,0.668,0.691c4.254,0.004,8.509,0,12.762,0.004
	C191.901,27.182,192.128,27.144,192.344,27.23z"/>
<path fill-rule="evenodd" clip-rule="evenodd" fill="#010101" d="M216.383,7.398c-0.222-0.069-0.445-0.033-0.666-0.033
	c-5.992-0.002-11.985-0.002-17.978-0.002c-0.102,0-0.203,0-0.306,0c-0.592-0.002-0.524,0.05-0.525-0.525
	c-0.001-2.105,0-4.213,0-6.318c0-0.537-0.061-0.52,0.471-0.52c8.918,0,17.834,0,26.752,0.001c0.496,0,0.501,0.005,0.503,0.494
	c0.001,2.169-0.005,4.337,0.004,6.505c0.001,0.297-0.091,0.556-0.197,0.822c-4.115,10.295-8.227,20.591-12.339,30.886
	c-2.138,5.347-4.277,10.691-6.411,16.037c-0.082,0.204-0.213,0.397-0.194,0.707c0.218,0,0.432,0,0.646,0
	c5.931,0,11.862-0.001,17.794,0.001c0.804,0.002,0.694-0.091,0.696,0.67c0.005,2.065,0.003,4.132,0.002,6.197
	c-0.002,0.488-0.008,0.495-0.508,0.495c-8.916,0.001-17.834,0.001-26.751,0c-0.46,0-0.466-0.007-0.467-0.468
	c-0.004-2.188,0.003-4.378-0.006-6.566c-0.001-0.276,0.082-0.52,0.183-0.765c2.746-6.752,5.489-13.505,8.234-20.256
	c3.621-8.909,7.243-17.817,10.859-26.728C216.263,7.831,216.394,7.639,216.383,7.398z"/>
<path fill-rule="evenodd" clip-rule="evenodd" fill="#FFC1E6" d="M51.203,18.764c-2.739,0-5.478,0-8.217,0c-0.082,0-0.164,0-0.246,0
	c-0.92,0-0.921,0-0.921-0.892c0-1.288,0-2.575,0-3.863c0-0.103-0.003-0.204,0-0.307c0.016-0.628,0.083-0.699,0.712-0.699
	c5.805-0.001,11.61-0.001,17.415-0.001c0.123,0,0.246,0.003,0.368,0.007c0.171,0.005,0.26,0.095,0.266,0.267
	c0.004,0.102,0.006,0.203,0.006,0.306c0,1.513,0.003,3.024,0,4.538c-0.002,0.609-0.038,0.644-0.676,0.644
	C57.008,18.765,54.104,18.764,51.203,18.764z"/>
<path fill-rule="evenodd" clip-rule="evenodd" fill="#C0F1FD" d="M93.06,11.403c-2.82,0-5.641,0-8.46,0
	c-0.143,0-0.287-0.008-0.429,0.001c-0.289,0.018-0.397-0.113-0.396-0.398c0.007-1.656,0.007-3.311,0-4.966
	c0-0.287,0.109-0.417,0.397-0.397c0.123,0.008,0.245,0,0.368,0c5.701,0,11.402,0,17.104,0c0.062,0,0.123-0.001,0.184,0
	c0.602,0.006,0.606,0.006,0.607,0.612c0.003,1.513,0.003,3.024,0,4.536c0,0.605-0.005,0.611-0.607,0.611
	C98.904,11.404,95.981,11.403,93.06,11.403z"/>
<path fill-rule="evenodd" clip-rule="evenodd" fill="#C0F1FD" d="M93.112,18.766c-2.84,0.001-5.682,0.001-8.521,0
	c-0.143,0-0.287-0.008-0.429,0.001c-0.296,0.019-0.39-0.129-0.387-0.407c0.01-0.797,0.003-1.594,0.003-2.391
	c0-0.817-0.005-1.636,0.001-2.452c0.004-0.499,0.013-0.499,0.523-0.511c0.082-0.002,0.164,0,0.246,0c5.701,0,11.402,0,17.103,0
	c0.103,0,0.206-0.004,0.307,0c0.461,0.017,0.474,0.018,0.475,0.498c0.005,1.573,0.005,3.146,0,4.721
	c-0.001,0.531-0.009,0.539-0.555,0.54C98.957,18.768,96.034,18.766,93.112,18.766z"/>
<path fill-rule="evenodd" clip-rule="evenodd" fill="#C0F1FD" d="M93.105,20.368c2.779,0,5.559,0,8.338,0c0.102,0,0.204,0,0.306,0
	c0.682,0.003,0.684,0.003,0.685,0.657c0.002,0.879,0.001,1.758,0.001,2.637c0,0.613,0.002,1.226-0.001,1.838
	c-0.002,0.625-0.005,0.625-0.654,0.629c-0.246,0-0.49,0-0.735,0c-5.497,0-10.994,0-16.49,0c-0.813,0-0.778,0.064-0.778-0.75
	c0.001-1.431,0.001-2.861,0-4.291c0-0.766-0.037-0.72,0.747-0.72C87.384,20.368,90.245,20.368,93.105,20.368z"/>
<path fill-rule="evenodd" clip-rule="evenodd" fill="#C0F1FD" d="M93.109,27.727c2.78,0,5.56,0,8.338,0c0.123,0,0.246-0.001,0.368,0
	c0.613,0.006,0.617,0.006,0.618,0.602c0.004,1.205,0.001,2.411,0.001,3.617c0,0.347-0.008,0.694,0.002,1.041
	c0.007,0.244-0.076,0.368-0.335,0.412c-0.24,0.041-0.476,0.093-0.724,0.093c-5.518-0.002-11.036-0.002-16.553-0.002
	c-0.082,0-0.164,0.003-0.245-0.002c-0.763-0.056-0.803-0.1-0.804-0.876c0-1.368,0-2.737,0-4.107c0-0.815-0.067-0.777,0.75-0.777
	C87.388,27.727,90.249,27.727,93.109,27.727z"/>
<path fill-rule="evenodd" clip-rule="evenodd" fill="#C0F1FD" d="M93.101,35.09c2.84,0,5.681,0,8.521,0
	c0.143,0,0.287,0.008,0.429-0.002c0.299-0.019,0.388,0.132,0.386,0.409c-0.008,1.001-0.003,2.003-0.002,3.003
	c0,0.614-0.005,1.228,0.001,1.84c0.002,0.236-0.057,0.378-0.325,0.419c-0.241,0.038-0.476,0.095-0.725,0.095
	c-5.517-0.002-11.035-0.002-16.553-0.002c-0.082,0-0.164,0.004-0.245-0.002c-0.769-0.053-0.812-0.098-0.812-0.865
	c0-1.452-0.003-2.903,0.001-4.354c0.001-0.532,0.01-0.54,0.555-0.54C87.256,35.086,90.178,35.09,93.101,35.09z"/>
<path fill-rule="evenodd" clip-rule="evenodd" fill="#FFAAA9" d="M9.321,33.39c-2.841,0-5.682,0-8.523,0
	c-0.144,0-0.287-0.009-0.429,0c-0.293,0.02-0.397-0.118-0.394-0.402c0.01-0.693,0.003-1.388,0.003-2.083
	c0-0.9-0.005-1.798,0.002-2.698c0.004-0.464,0.013-0.464,0.488-0.478c0.103-0.003,0.205,0,0.307,0c5.723,0,11.446,0,17.169,0
	c0.061,0,0.123,0,0.184,0c0.599,0.004,0.603,0.004,0.604,0.608c0.002,1.492,0.002,2.983-0.001,4.476
	c-0.001,0.569-0.007,0.576-0.581,0.576C15.208,33.391,12.264,33.39,9.321,33.39z"/>
<path fill-rule="evenodd" clip-rule="evenodd" fill="#FFAAA9" d="M9.326,40.744c-2.841,0-5.683,0-8.524,0
	c-0.143,0-0.287-0.009-0.43,0.002c-0.289,0.021-0.4-0.11-0.396-0.396c0.011-0.695,0.003-1.392,0.003-2.085
	c0-0.92,0.008-1.84-0.004-2.761c-0.004-0.314,0.111-0.454,0.428-0.428c0.122,0.011,0.246,0.001,0.368,0.001
	c5.724,0,11.447,0,17.171,0c0.061,0,0.122,0,0.184,0c0.603,0.006,0.606,0.006,0.608,0.61c0.002,1.493,0.002,2.984-0.001,4.477
	c-0.001,0.572-0.007,0.578-0.576,0.578C15.212,40.746,12.269,40.744,9.326,40.744z"/>
<path fill-rule="evenodd" clip-rule="evenodd" fill="#DDE997" d="M72.188,40.744c-2.799,0-5.599,0-8.399,0
	c-0.123,0-0.245,0-0.368-0.001c-0.611-0.005-0.615-0.005-0.617-0.599c-0.003-1.245-0.001-2.493-0.001-3.74
	c0-0.305,0.01-0.612-0.001-0.918c-0.012-0.28,0.089-0.427,0.387-0.406c0.122,0.011,0.245,0.002,0.368,0.002
	c5.742,0,11.484,0,17.227,0c0.812,0,0.775-0.074,0.774,0.753c0,1.409,0.001,2.82,0,4.229c0,0.677-0.002,0.679-0.663,0.679
	C77.992,40.744,75.09,40.744,72.188,40.744z"/>
<path fill-rule="evenodd" clip-rule="evenodd" fill="#FF0101" d="M9.361,48.118c-2.882,0-5.764,0-8.646,0
	c-0.164,0-0.328,0.002-0.491-0.003c-0.144-0.006-0.223-0.082-0.222-0.23C0.003,47.783,0,47.681,0,47.577
	c0-1.532-0.001-3.065,0-4.599c0-0.547,0.004-0.55,0.583-0.55c3.066-0.002,6.132-0.002,9.199-0.002c2.739,0,5.479,0,8.218,0.002
	c0.164,0,0.327-0.004,0.491,0.003c0.142,0.006,0.222,0.082,0.221,0.232c-0.001,0.102,0.001,0.204,0.001,0.307
	c0,1.532-0.001,3.065,0.001,4.599c0,0.561,0.042,0.55-0.584,0.55C15.208,48.118,12.285,48.118,9.361,48.118z"/>
<path fill-rule="evenodd" clip-rule="evenodd" fill="#FF0192" d="M51.256,42.429c2.861,0,5.723,0,8.584,0
	c0.144,0,0.286,0.007,0.429,0c0.238-0.013,0.318,0.101,0.317,0.329c-0.005,1.677-0.005,3.353,0,5.028
	c0,0.229-0.074,0.347-0.314,0.332c-0.123-0.008-0.245,0-0.367,0c-5.784,0-11.568,0-17.352-0.001c-0.741,0-0.687,0.081-0.688-0.697
	c-0.001-1.45,0-2.901-0.001-4.352c0-0.689-0.025-0.64,0.625-0.64C45.411,42.429,48.334,42.429,51.256,42.429z"/>
<path fill-rule="evenodd" clip-rule="evenodd" fill="#BED80D" d="M72.123,48.118c-2.84,0-5.68,0-8.52,0
	c-0.123,0-0.246-0.009-0.367,0.001c-0.302,0.027-0.458-0.066-0.432-0.406c0.025-0.325,0.005-0.654,0.005-0.98
	c0-1.266-0.003-2.533,0.001-3.799c0.001-0.493,0.008-0.501,0.513-0.502c1.839-0.002,3.677-0.001,5.516-0.001
	c4.005,0,8.008,0,12.013,0c0.695,0.001,0.677-0.069,0.677,0.651c-0.001,1.492,0.001,2.982-0.001,4.475
	c0,0.557-0.005,0.561-0.58,0.562C78.006,48.119,75.064,48.118,72.123,48.118z"/>
<path fill-rule="evenodd" clip-rule="evenodd" fill="#FF0101" d="M9.36,55.47c-2.881,0-5.763,0-8.644,0
	c-0.164,0-0.328,0-0.491-0.004C0.081,55.464,0,55.393,0.002,55.242C0.003,55.14,0,55.037,0,54.936c0-1.513,0-3.023,0-4.537
	c0-0.64-0.063-0.608,0.648-0.608c3.331,0.001,6.662,0.001,9.993,0.001c2.453,0,4.904,0,7.357,0c0.163,0,0.328-0.004,0.49,0.003
	c0.142,0.006,0.224,0.079,0.223,0.23c0,0.102,0.002,0.205,0.002,0.308c0,1.511,0.001,3.024,0,4.535c0,0.625,0.08,0.603-0.585,0.603
	C15.205,55.47,12.283,55.47,9.36,55.47z"/>
<path fill-rule="evenodd" clip-rule="evenodd" fill="#FF0192" d="M51.191,55.469c-2.88,0-5.762,0-8.642-0.002
	c-0.143,0-0.286-0.004-0.429-0.001c-0.186,0.006-0.253-0.095-0.253-0.265c0.001-0.306-0.001-0.612-0.001-0.919
	c-0.001-1.35-0.003-2.698,0.002-4.045c0.002-0.433,0.013-0.443,0.447-0.444c1.675-0.006,3.352-0.002,5.026-0.002
	c4.188,0,8.376,0,12.565,0c0.776,0,0.676-0.041,0.678,0.702c0.003,1.491,0.003,2.981,0,4.474c0,0.492-0.007,0.499-0.505,0.499
	C57.116,55.47,54.153,55.467,51.191,55.469z"/>
<path fill-rule="evenodd" clip-rule="evenodd" fill="#BED80D" d="M72.177,55.469c-2.884,0-5.767,0-8.65,0
	c-0.164,0-0.327,0-0.491-0.005c-0.146-0.005-0.224-0.079-0.225-0.229c0-0.102-0.003-0.204-0.003-0.307
	c-0.001-1.533-0.002-3.066,0.001-4.602c0-0.525,0.006-0.532,0.543-0.533c3.681-0.001,7.361,0,11.042,0c2.188,0,4.375-0.001,6.564,0
	c0.563,0.001,0.567,0.005,0.568,0.576c0.003,1.513,0.003,3.025,0,4.539c0,0.555-0.005,0.558-0.578,0.558
	C78.025,55.47,75.101,55.469,72.177,55.469z"/>
<path fill-rule="evenodd" clip-rule="evenodd" fill="#FF0101" d="M9.288,62.818c-2.861,0-5.72,0-8.581,0
	c-0.144,0-0.286-0.005-0.429,0c-0.17,0.005-0.275-0.058-0.275-0.243c0-0.02-0.001-0.04-0.001-0.062c0-1.695,0.002-3.392-0.001-5.087
	c0-0.207,0.092-0.298,0.294-0.295c0.143,0.001,0.286-0.001,0.429-0.001c5.762,0,11.524,0,17.286,0c0.061,0,0.123-0.001,0.184,0
	c0.517,0.008,0.521,0.008,0.521,0.557c0.002,1.532,0.002,3.064,0,4.598c-0.001,0.526-0.006,0.532-0.538,0.532
	C15.213,62.818,12.25,62.818,9.288,62.818z"/>
<path fill-rule="evenodd" clip-rule="evenodd" fill="#DDE997" d="M72.12,27.729c2.862,0,5.725,0,8.587,0
	c0.163,0,0.327,0.002,0.49,0.003c0.224,0,0.339,0.116,0.352,0.336c0.008,0.122,0.008,0.245,0.008,0.368c0,1.431,0.001,2.861,0,4.293
	c-0.001,0.651-0.004,0.657-0.626,0.657c-5.827,0.001-11.653,0-17.479,0c-0.124,0-0.246-0.005-0.368-0.006
	c-0.172-0.002-0.265-0.088-0.273-0.261c-0.005-0.102-0.007-0.204-0.007-0.307c0-1.512-0.002-3.025,0.001-4.539
	c0.001-0.535,0.009-0.543,0.545-0.544C66.273,27.729,69.196,27.729,72.12,27.729z"/>
<path fill-rule="evenodd" clip-rule="evenodd" fill="#FF0192" d="M51.251,62.819c-2.86,0-5.72,0-8.58,0
	c-0.123,0-0.246-0.013-0.367,0.001c-0.308,0.038-0.473-0.066-0.438-0.398c0.004-0.042,0-0.082,0-0.123
	c0-1.552-0.003-3.104,0.001-4.657c0.001-0.498,0.01-0.508,0.515-0.508c5.903-0.002,11.807-0.002,17.71,0
	c0.484,0,0.492,0.012,0.492,0.526c0.003,1.552,0.003,3.104,0,4.657c-0.001,0.493-0.008,0.5-0.509,0.501
	C57.134,62.819,54.192,62.819,51.251,62.819z"/>
<path fill-rule="evenodd" clip-rule="evenodd" fill="#BED80D" d="M72.184,62.819c-2.862,0-5.724,0-8.586,0
	c-0.122,0-0.247-0.011-0.367,0.001c-0.312,0.033-0.439-0.081-0.428-0.409c0.021-0.613,0.006-1.229,0.006-1.84
	c0-1.002,0.01-2.004-0.006-3.006c-0.004-0.313,0.097-0.458,0.418-0.428c0.122,0.011,0.245,0.001,0.368,0.001
	c5.724,0,11.447,0,17.172,0c0.123,0,0.246,0.009,0.368-0.001c0.282-0.021,0.405,0.087,0.404,0.385c-0.009,1.635-0.01,3.271,0,4.905
	c0.002,0.345-0.163,0.398-0.457,0.396c-1.472-0.01-2.943-0.004-4.415-0.004C75.168,62.819,73.676,62.819,72.184,62.819z"/>
<path fill-rule="evenodd" clip-rule="evenodd" fill="#FFEF00" d="M30.28,55.464c-2.863,0.001-5.725,0.001-8.587,0
	c-0.143,0-0.287-0.008-0.429,0.001c-0.237,0.016-0.321-0.092-0.32-0.324c0.006-1.676,0.006-3.352,0.001-5.029
	c-0.001-0.239,0.1-0.332,0.329-0.319c0.122,0.006,0.245,0,0.368,0c5.765,0,11.53,0,17.296,0.001c0.769,0,0.681-0.058,0.683,0.697
	c0.003,1.491,0.003,2.983,0,4.477c-0.001,0.489-0.008,0.496-0.509,0.497C36.167,55.465,33.223,55.464,30.28,55.464z"/>
<path fill-rule="evenodd" clip-rule="evenodd" fill="#FFEF00" d="M30.267,48.117c-2.86,0-5.719,0-8.58,0
	c-0.143,0-0.286-0.008-0.429,0c-0.241,0.013-0.315-0.106-0.315-0.333c0.005-1.675,0.005-3.35,0.001-5.026
	c-0.001-0.229,0.081-0.341,0.318-0.328c0.122,0.006,0.245,0,0.368,0c5.76,0,11.521,0,17.281,0c0.103,0,0.206,0.011,0.307-0.001
	c0.333-0.042,0.409,0.124,0.407,0.427c-0.011,1.553-0.004,3.105-0.005,4.657c0,0.64,0.049,0.604-0.59,0.604
	C36.109,48.118,33.188,48.117,30.267,48.117z"/>
<path fill-rule="evenodd" clip-rule="evenodd" fill="#FFC1E6" d="M51.209,33.38c-2.821,0-5.643,0-8.464,0
	c-0.143,0-0.287-0.009-0.429,0c-0.294,0.017-0.392-0.128-0.39-0.408c0.009-0.755,0.002-1.512,0.002-2.269
	c0-0.838-0.006-1.678,0.003-2.516c0.004-0.434,0.023-0.441,0.451-0.458c0.123-0.006,0.246-0.001,0.368-0.001
	c5.663,0,11.327,0,16.99,0c0.123,0,0.246-0.005,0.368,0c0.463,0.016,0.475,0.016,0.476,0.495c0.006,1.514,0.003,3.026,0.001,4.539
	c-0.001,0.609-0.006,0.614-0.605,0.616C57.058,33.38,54.133,33.38,51.209,33.38z"/>
<path fill-rule="evenodd" clip-rule="evenodd" fill="#01C6F4" d="M93.099,55.487c-2.841,0-5.684,0-8.525,0
	c-0.164,0-0.327-0.009-0.49,0c-0.237,0.014-0.321-0.095-0.32-0.326c0.005-1.677,0.005-3.354,0-5.029c0-0.236,0.096-0.335,0.329-0.32
	c0.123,0.008,0.245,0,0.367,0c5.766,0,11.531-0.001,17.296,0c0.752,0,0.685-0.069,0.686,0.696c0.003,1.492,0.003,2.985,0,4.478
	c-0.001,0.493-0.008,0.5-0.51,0.5C98.987,55.488,96.043,55.487,93.099,55.487z"/>
<path fill-rule="evenodd" clip-rule="evenodd" fill="#FFC1E6" d="M51.323,35.085c2.801,0,5.602,0,8.402,0
	c0.123,0,0.246-0.002,0.368,0.001c0.482,0.016,0.49,0.018,0.492,0.546c0.004,1.266,0.001,2.534,0.001,3.803
	c0,0.285,0.007,0.571-0.002,0.858c-0.015,0.423-0.025,0.428-0.466,0.445c-0.102,0.004-0.204,0-0.306,0c-5.705,0-11.41,0-17.114,0
	c-0.814,0-0.771,0.055-0.77-0.759c0-1.41-0.001-2.822,0-4.232c0.001-0.657,0.003-0.661,0.684-0.661
	C45.516,35.085,48.419,35.085,51.323,35.085z"/>
<path fill-rule="evenodd" clip-rule="evenodd" fill="#FFEF00" d="M30.227,62.819c-2.822,0-5.644,0-8.465,0
	c-0.123,0-0.246,0.003-0.368-0.001c-0.433-0.013-0.444-0.013-0.446-0.442c-0.005-1.31-0.001-2.617-0.001-3.925
	c0-0.329,0.007-0.655,0-0.982c-0.006-0.229,0.085-0.343,0.321-0.333c0.123,0.005,0.246,0,0.368,0c5.766,0,11.531,0,17.297,0
	c0.082,0,0.164-0.003,0.245,0c0.431,0.017,0.441,0.017,0.443,0.451c0.006,1.288,0.001,2.575,0.001,3.864
	c0,0.347-0.006,0.694,0.002,1.042c0.006,0.229-0.078,0.345-0.319,0.326c-0.143-0.01-0.287-0.001-0.43-0.001
	C35.992,62.819,33.109,62.819,30.227,62.819z"/>
<path fill-rule="evenodd" clip-rule="evenodd" fill="#01C6F4" d="M93.043,48.147c-2.799,0-5.598,0-8.397,0
	c-0.144,0-0.287,0.005-0.429-0.001c-0.438-0.014-0.448-0.015-0.451-0.443c-0.006-1.164-0.002-2.328-0.002-3.494
	c0-0.47,0.01-0.939-0.003-1.409c-0.007-0.267,0.098-0.375,0.361-0.353c0.121,0.011,0.244,0.002,0.367,0.002
	c5.742,0,11.483-0.002,17.225,0c0.808,0.002,0.727-0.088,0.728,0.713c0.003,1.473,0.003,2.943,0,4.414
	c-0.001,0.564-0.005,0.57-0.571,0.57C98.928,48.147,95.985,48.147,93.043,48.147z"/>
<path fill-rule="evenodd" clip-rule="evenodd" fill="#FFC1E6" d="M51.198,26.016c-2.781,0.001-5.561,0.001-8.342,0.001
	c-0.123,0-0.246,0.001-0.368-0.001c-0.553-0.01-0.557-0.01-0.559-0.602c-0.004-1.104-0.001-2.209-0.001-3.313
	c0-0.43-0.008-0.858,0.003-1.288c0.011-0.423,0.025-0.431,0.463-0.447c0.102-0.005,0.205-0.001,0.307-0.001
	c5.704,0,11.409,0,17.113,0c0.813,0,0.773-0.069,0.773,0.753c0,1.452,0.003,2.903-0.002,4.354c-0.001,0.533-0.009,0.541-0.554,0.542
	C57.087,26.018,54.142,26.016,51.198,26.016z"/>
<path fill-rule="evenodd" clip-rule="evenodd" fill="#01C6F4" d="M93.042,62.835c-2.82,0-5.642,0-8.463,0
	c-0.123,0-0.246,0.004-0.368-0.001c-0.432-0.012-0.443-0.012-0.444-0.443c-0.006-1.288-0.002-2.576-0.002-3.862
	c0-0.349,0.009-0.696-0.001-1.043c-0.006-0.236,0.09-0.339,0.325-0.324c0.122,0.008,0.245,0,0.368,0c5.765,0,11.53,0,17.295,0
	c0.082,0,0.164-0.001,0.245,0.001c0.433,0.013,0.444,0.015,0.445,0.443c0.006,1.288,0.002,2.577,0.002,3.864
	c0,0.348-0.009,0.694,0.001,1.043c0.006,0.234-0.092,0.335-0.325,0.322c-0.143-0.007-0.286,0-0.43,0
	C98.807,62.835,95.925,62.835,93.042,62.835z"/>
</svg>
