<?xml version="1.0" encoding="utf-8"?>
<!-- Generator: Adobe Illustrator 16.0.3, SVG Export Plug-In . SVG Version: 6.00 Build 0)  -->
<!DOCTYPE svg PUBLIC "-//W3C//DTD SVG 1.1//EN" "http://www.w3.org/Graphics/SVG/1.1/DTD/svg11.dtd">
<svg version="1.1" id="Layer_1" xmlns="http://www.w3.org/2000/svg" xmlns:xlink="http://www.w3.org/1999/xlink" x="0px" y="0px"
	 width="413.259px" height="108.978px" viewBox="0 0 413.259 108.978" enable-background="new 0 0 413.259 108.978"
	 xml:space="preserve">
<path fill-rule="evenodd" clip-rule="evenodd" d="M57.529,95.09c-3.622,0.023-7.014-0.858-10.251-2.474
	c-0.9-0.448-1.052-0.947-0.639-1.761c0.199-0.39,0.394-0.782,0.611-1.162c0.647-1.133,1.446-1.508,2.851-1.141
	c4.87,1.272,9.789,1.232,14.69,0.067c1.834-0.437,2.246-0.26,3.234,1.447c0.961,1.661,0.883,1.972-0.791,2.787
	C64.174,94.346,60.942,95.115,57.529,95.09z"/>
<path d="M105.79,30.856c-0.722-0.511-0.938-1.01-0.93-1.85c0.041-4.558-0.001-9.117,0.038-13.675
	c0.007-0.884-0.121-1.237-1.149-1.161c-3.187,0.234-6.344,0.628-9.444,1.401c-0.762,0.19-1.275,0.138-1.86-0.487
	c-1.689-1.804-3.481-3.5-5.444-5.024c-5.927-4.602-12.559-7.611-19.904-9.13C65.533,0.607,63.894,0.662,62.4,0c-2.4,0-4.8,0-7.2,0
	c-0.48,0.34-0.96,0.402-1.44,0c-0.24,0-0.48,0-0.72,0c-1.659,0.542-3.41,0.564-5.106,0.923c-9.954,2.102-18.422,6.836-25.382,14.25
	c-0.51,0.543-0.946,0.641-1.65,0.46c-3.141-0.808-6.343-1.231-9.579-1.469c-1.09-0.08-1.229,0.293-1.22,1.239
	c0.044,4.596,0.019,9.193,0.023,13.79c0.001,0.562,0,1.034-0.585,1.43C4.5,34.046,1.442,38.787,0.278,44.761
	C0.236,44.978,0.305,45.26,0,45.36c0,2.16,0,4.32,0,6.48c0.185,0.041,0.23,0.18,0.261,0.345c1.14,6.121,4.294,10.934,9.417,14.456
	c0.466,0.321,0.545,0.745,0.609,1.225c1.514,11.383,6.501,20.996,14.98,28.7c9.758,8.866,21.345,12.873,34.497,12.37
	c5.659-0.216,11.144-1.409,16.326-3.644c7.6-3.275,14.092-8.092,19.19-14.689c4.812-6.228,7.92-13.191,9.121-20.983
	c0.262-1.702,0.724-3.059,2.385-4.168c3.234-2.158,5.443-5.385,6.839-8.957c1.162-2.974,1.652-6.158,1.365-9.449
	C114.393,40.208,111.368,34.81,105.79,30.856z M83.841,19.298c-1.381,0.787-2.774,1.542-4.123,2.37
	c-0.503,0.308-0.833,0.04-1.208-0.144C71.755,18.217,64.623,16.6,57.1,16.659c-7.189,0.057-14.011,1.661-20.46,4.819
	c-0.701,0.343-1.19,0.349-1.847-0.073c-1.164-0.746-2.404-1.376-3.627-2.063C45.731,5.34,69.729,5.653,83.841,19.298z
	 M95.513,62.596C95.46,80.347,82.13,95.918,64.329,99.088c-18.573,3.309-36.506-7.096-42.766-24.817
	c-1.37-3.877-2.03-7.89-2.064-11.991c-0.045-5.56-0.011-11.119-0.011-16.679c0-6.6,0.021-13.199-0.021-19.798
	c-0.007-1.088,0.252-1.254,1.278-0.933c5.131,1.607,9.812,4.046,13.995,7.42c0.598,0.482,0.974,0.606,1.727,0.14
	c13.942-8.617,27.947-8.644,41.93-0.109c0.88,0.537,1.318,0.421,2.02-0.145c4.154-3.353,8.832-5.714,13.93-7.284
	c0.931-0.287,1.199-0.187,1.196,0.868C95.507,38.037,95.549,50.316,95.513,62.596z"/>
<path d="M0.278,44.761C1.442,38.787,4.5,34.046,9.541,30.623c0.584-0.396,0.586-0.868,0.585-1.43
	c-0.004-4.597,0.021-9.194-0.023-13.79c-0.009-0.945,0.13-1.319,1.22-1.239c3.236,0.238,6.438,0.661,9.579,1.469
	c0.704,0.181,1.14,0.083,1.65-0.46c6.96-7.414,15.428-12.148,25.382-14.25C49.629,0.564,51.381,0.542,53.04,0
	c-1.168,0.249-2.37,0.147-3.544,0.333C42.881,1.376,36.8,3.795,31.203,7.45c-3.089,2.017-5.952,4.32-8.462,7.024
	c-0.66,0.711-1.236,0.958-2.18,0.729c-2.915-0.708-5.875-1.191-8.873-1.353c-1.726-0.093-1.927,0.152-1.931,1.889
	c-0.009,4.317-0.018,8.633,0.009,12.95c0.006,0.929-0.302,1.562-1.071,2.111c-1.232,0.88-2.391,1.854-3.399,3.012
	C2.391,37.147,0.488,40.924,0,45.36C0.305,45.26,0.236,44.978,0.278,44.761z"/>
<path d="M55.2,0c-0.48,0-0.96,0-1.44,0C54.24,0.196,54.72,0.196,55.2,0z"/>
<path d="M55.2,0c-0.48,0.196-0.96,0.196-1.44,0C54.24,0.402,54.72,0.34,55.2,0z"/>
<path d="M265.173,45.756c0.001-0.429,0.003-0.858,0.004-1.287c-0.274-0.39-0.166-0.829-0.163-1.254
	c-0.724-5.319-3.582-8.646-8.65-9.815c-6.159-1.42-12.12-0.764-17.813,2.038c-1.271,0.626-1.298,0.645-1.422-0.807
	c-0.078-0.913-0.4-1.295-1.401-1.266c-2.597,0.075-5.199,0.092-7.794-0.007c-1.06-0.041-1.52,0.373-1.764,1.281
	c-1.158,4.312-2.354,8.612-3.627,12.892c-1.342,4.509-2.519,9.066-3.789,13.597c-1.289,4.598-2.604,9.188-3.911,13.781
	c-1.126,3.955-2.258,7.908-3.387,11.862c0.61,0.266,1.254,0.14,1.881,0.142c3.373,0.014,6.745,0.01,10.118,0.005
	c0.472-0.001,0.953,0.071,1.409-0.128c0,0,0.001,0,0.001-0.001c0.005-0.159-0.022-0.328,0.02-0.478
	c1.192-4.225,2.407-8.442,3.575-12.674c0.173-0.625,0.526-0.478,0.901-0.395c0.848,0.189,1.68,0.473,2.536,0.598
	c3.565,0.52,7.127,0.48,10.675-0.185c6.335-1.188,11.646-4.128,15.686-9.212c4.055-5.102,5.928-11.057,6.748-17.416
	C265.022,46.599,264.879,46.148,265.173,45.756z M247.259,60.668c-2.284,3.568-5.69,5.123-9.771,4.874
	c-1.995,0.061-3.803-0.269-5.61-0.606c-0.625-0.117-0.853-0.321-0.646-1.037c1.854-6.442,3.671-12.896,5.48-19.352
	c0.167-0.596,0.487-0.93,1.057-1.166c3.253-1.351,6.598-2.133,10.15-1.867c2.725,0.205,3.957,1.391,3.901,4.104
	C251.709,51.05,250.182,56.103,247.259,60.668z"/>
<path d="M217.005,43.188c0.004-0.871,0.007-1.741,0.011-2.611c-0.454-2.895-2.035-4.915-4.676-6.174
	c-2.12-1.01-4.396-1.279-6.675-1.576c-0.424,0.011-0.859,0.097-1.248-0.166c0,0-0.001,0-0.001,0
	c-1.793,0.001-3.586,0.003-5.379,0.005c-0.391,0.286-0.833,0.155-1.259,0.154c-4.41,0.353-8.782,0.949-13.089,1.985
	c-0.488,0.117-0.9,0.225-1.056,0.792c-0.773,2.824-1.567,5.642-2.403,8.637c1.716-0.33,3.342-0.646,4.969-0.956
	c4.661-0.889,9.341-1.559,14.108-1.316c0.832,0.042,1.624,0.23,2.4,0.519c0.583,0.217,0.847,0.574,0.872,1.243
	c0.041,1.057-0.464,1.978-0.586,2.988c-0.097,0.805-0.566,1.09-1.406,1.068c-2.198-0.059-4.398-0.008-6.597-0.022
	c-3.366-0.021-6.675,0.383-9.933,1.238c-3.78,0.992-7.139,2.716-9.711,5.724c-2.208,2.582-3.31,5.666-3.669,9.003
	c-0.19,1.767-0.167,3.544,0.62,5.226c1.731,3.701,5.137,4.754,8.699,5.118c5.404,0.552,10.646-0.29,15.461-3.013
	c0.753-0.427,0.885-0.116,0.828,0.57c-0.02,0.237,0.047,0.484,0.012,0.718c-0.137,0.913,0.251,1.137,1.137,1.12
	c3.038-0.055,6.079-0.072,9.116,0.009c0.989,0.026,1.26-0.387,1.49-1.217c1.637-5.906,3.352-11.79,4.97-17.701
	C215.043,50.773,216.34,47.063,217.005,43.188z M200.493,55.637c-0.67,2.252-1.291,4.519-1.918,6.782
	c-0.104,0.375-0.3,0.612-0.654,0.786c-2.717,1.331-5.57,2.136-8.728,2.292c-0.271-0.032-0.667-0.075-1.061-0.128
	c-2.871-0.385-3.459-1.256-2.765-4.094c0.908-3.712,3.168-5.519,7.49-6.063c2.343-0.296,4.695-0.25,7.044-0.319
	C200.49,54.875,200.683,54.998,200.493,55.637z"/>
<path d="M172.382,40.338c0,0,0,0.001,0,0.002C172.383,40.34,172.383,40.339,172.382,40.338c-0.353-2.149-1.167-4.015-3.055-5.299
	c-2.375-1.615-5.09-1.972-7.832-2.113c-5.58-0.287-10.85,1.064-15.923,3.28c-2.108,0.92-2.096,0.95-2.495-1.284
	c-0.028-0.156-0.048-0.319-0.035-0.476c0.061-0.703-0.294-0.864-0.938-0.859c-2.959,0.026-5.918,0.03-8.877,0
	c-0.795-0.008-1.05,0.301-1.23,1.074c-0.454,1.951-1.061,3.866-1.615,5.793c-0.964,3.349-1.951,6.692-2.899,10.046
	c-1.129,3.995-2.213,8.004-3.343,11.999c-1.041,3.68-2.116,7.35-3.212,11.149c3.851,0,7.564-0.001,11.277,0
	c2.101,0.001,2.083-0.003,2.63-1.958c2.412-8.61,4.837-17.218,7.246-25.83c0.145-0.52,0.455-0.805,0.934-0.976
	c1.832-0.651,3.672-1.265,5.562-1.737c2.842-0.709,5.699-1.064,8.604-0.474c1.555,0.316,1.847,0.809,1.422,2.31
	c-0.522,1.849-1.077,3.688-1.596,5.537c-1.101,3.924-2.176,7.854-3.286,11.775c-0.971,3.431-1.966,6.855-2.97,10.277
	c-0.23,0.784-0.201,1.125,0.822,1.104c3.557-0.074,7.119-0.08,10.676,0.002c1.165,0.026,1.638-0.323,1.948-1.46
	c1.865-6.831,3.822-13.638,5.74-20.455c0.868-3.085,1.929-6.119,2.433-9.299C172.373,41.757,172.378,41.048,172.382,40.338z"/>
<path d="M376.808,43.163c-0.418-3.489-1.989-6.239-5.012-8.09c-2.798-1.715-5.94-2.168-9.127-2.347
	c-4.06-0.228-8.037,0.391-11.87,1.678c-4.12,1.383-7.589,3.862-10.359,7.19c-2.197,2.64-3.821,5.637-4.969,8.914
	c-1.568,4.478-2.609,8.998-1.791,13.759c0.398,2.313,1.411,4.384,3.147,5.979c2.966,2.725,6.757,3.529,10.555,3.825
	c3.315,0.257,6.683,0.268,10.021-0.161c3.16-0.404,6.31-0.841,9.4-1.648c0.529-0.139,0.723-0.432,0.848-0.863
	c0.475-1.634,0.948-3.268,1.403-4.906c0.342-1.231,0.655-2.47,1.005-3.796c-0.685,0.149-1.186,0.268-1.689,0.366
	c-3.941,0.772-7.866,1.66-11.907,1.757c-0.469,0.294-0.988,0.158-1.49,0.174c-0.65-0.006-1.3-0.011-1.95-0.017
	c-0.423,0.02-0.854,0.104-1.241-0.156c-0.001-0.001-0.002-0.001-0.003-0.001c-0.313-0.007-0.633,0.021-0.94-0.026
	c-2.362-0.354-4.453-1.841-4.303-3.992c-0.277-0.69-0.268-1.381,0.003-2.071v-0.001v-0.001c-0.228-1.187,0.307-1.432,1.432-1.425
	c7.879,0.049,15.759,0.025,23.639,0.025c2.582,0,2.593,0.005,3.384-2.395C376.252,51.113,377.299,47.264,376.808,43.163z
	 M363.762,48.898c-0.11,0.593-0.547,0.576-1.005,0.575c-2.159-0.008-4.318-0.003-6.478-0.003c-2.119,0-4.238,0.002-6.357-0.002
	c-0.395,0-0.915,0.057-0.657-0.604c1.351-3.464,3.228-6.464,7.087-7.56c1.665-0.473,3.377-0.587,5.097-0.259
	c1.429,0.272,2.355,1.039,2.689,2.523C364.549,45.396,364.089,47.136,363.762,48.898z"/>
<path d="M302.591,34.428c-6.982-1.972-14.011-2.381-21.097-0.65c-5.463,1.334-9.919,4.009-12.179,9.474
	c-0.771,1.866-1.191,3.787-0.797,5.821c0.613,3.157,2.72,5.002,5.446,6.37c2.964,1.486,6.26,2.04,9.265,3.387
	c0.816,0.366,1.862,0.596,1.899,1.838c0.038,1.286-0.455,2.237-1.53,2.984c-1.432,0.996-3.039,1.273-4.707,1.385
	c-4.513,0.301-8.852-0.759-13.178-1.791c-1.044-0.25-1.396,0.104-1.624,0.919c-0.699,2.493-1.344,5.003-2.083,7.484
	c-0.166,0.56-0.065,0.674,0.441,0.793c4.272,1.002,8.563,1.845,12.984,1.71c2.962,0.081,5.901-0.133,8.802-0.741
	c5.597-1.175,10.23-3.745,12.763-9.161c1.174-2.51,1.971-5.143,1.224-7.956c-0.925-3.484-3.568-5.209-6.72-6.358
	c-2.823-1.029-5.799-1.616-8.541-2.877c-1.655-0.761-1.901-2.05-0.751-3.466c0.47-0.58,1.11-0.883,1.791-1.135
	c1.315-0.486,2.698-0.642,4.073-0.681c4.002-0.112,7.896,0.718,11.78,1.542c0.983,0.209,1.408,0.013,1.66-0.995
	c0.547-2.186,1.171-4.356,1.866-6.499C303.668,34.936,303.414,34.661,302.591,34.428z"/>
<path d="M336.368,39.423c0.715-2.034,1.82-3.93,2.825-6.034c-3.596,0-6.987-0.019-10.377,0.014
	c-0.789,0.008-0.995-0.122-0.762-0.974c0.772-2.821,1.45-5.668,2.138-8.512c0.096-0.397,0.358-1.007-0.562-0.827
	c-3.94,0.77-7.887,1.514-11.83,2.272c-0.374,0.072-0.64,0.127-0.771,0.671c-0.543,2.243-1.335,4.414-2.121,6.585
	c-0.217,0.599-0.502,0.794-1.113,0.784c-1.839-0.033-3.679,0.005-5.518-0.023c-0.5-0.008-0.872,0.099-1.008,0.601
	c-0.615,2.273-1.184,4.558-1.837,6.82c-0.22,0.764,0.026,0.904,0.709,0.892c1.56-0.026,3.119-0.01,4.679-0.007
	c1.361,0.003,1.404,0.112,0.991,1.447c-0.592,1.909-1.131,3.834-1.682,5.755c-1.015,3.539-2.084,7.063-3.01,10.625
	c-0.679,2.605-1.743,5.141-1.547,7.937c0.122,1.729,0.725,3.247,1.941,4.408c1.595,1.522,3.735,2.082,5.815,2.224
	c5.103,0.346,10.175-0.08,15.155-1.354c0.495-0.126,0.705-0.316,0.843-0.821c0.674-2.479,1.365-4.957,2.148-7.404
	c0.304-0.951,0.142-1.176-0.79-0.874c-0.227,0.073-0.464,0.114-0.699,0.154c-3.059,0.526-6.083,1.303-9.217,1.285
	c-1.692-0.01-1.846-0.262-1.378-1.903c1.934-6.772,3.881-13.542,5.741-20.335c0.261-0.951,0.648-1.184,1.541-1.161
	c1.998,0.053,4.013-0.136,5.993,0.058C334.619,41.917,335.695,41.338,336.368,39.423z"/>
<path d="M409.183,32.836c-4.257-0.424-8.148,0.41-11.615,2.979c-0.308,0.228-0.413,0.142-0.394-0.211
	c-0.337-0.639-0.127-1.32-0.151-1.982c-0.135-0.074-0.27-0.21-0.404-0.211c-3.277-0.015-6.556-0.006-9.833-0.03
	c-0.52-0.004-0.513,0.293-0.616,0.656c-1.899,6.665-3.837,13.32-5.726,19.988c-1.826,6.447-3.605,12.907-5.421,19.415
	c4.21,0,8.405-0.016,12.601,0.017c0.675,0.005,0.778-0.405,0.907-0.857c2.548-8.979,5.107-17.953,7.605-26.945
	c0.202-0.728,0.537-1.058,1.165-1.319c2.085-0.867,4.229-1.371,6.503-1.2c1.808,0.136,3.597,0.4,5.382,0.719
	c0.479,0.085,1.051,0.325,1.287-0.56c0.874-3.276,1.84-6.528,2.786-9.841C411.848,33.182,410.53,32.97,409.183,32.836z"/>
<path d="M224.12,86.99c-3.979,0.009-7.958,0.009-11.937-0.001c-0.251,0-0.574,0.141-0.729-0.219
	c0.178,0.452,0.579,0.346,0.917,0.346c3.854,0.006,7.708,0.006,11.562,0c0.339-0.001,0.737,0.11,0.931-0.327h-0.001
	C224.689,87.122,224.375,86.989,224.12,86.99z"/>
<path d="M223.454,86.917c-3.373,0.005-6.745,0.009-10.118-0.005c-0.627-0.002-1.271,0.124-1.881-0.142
	c0.155,0.359,0.478,0.219,0.729,0.219c3.979,0.01,7.957,0.01,11.937,0.001c0.255-0.001,0.569,0.132,0.743-0.201
	C224.407,86.988,223.926,86.916,223.454,86.917z"/>
<path d="M217.005,43.188c0.315-0.87,0.301-1.74,0.011-2.611C217.106,41.447,217.128,42.317,217.005,43.188z"/>
<path d="M217.016,40.576c-0.004,0.87-0.007,1.741-0.011,2.611C217.128,42.317,217.106,41.447,217.016,40.576z"/>
<path d="M172.369,42.466c0.305-0.707,0.287-1.415,0.014-2.126C172.461,41.049,172.485,41.758,172.369,42.466z"/>
<path d="M172.369,42.466c0.117-0.708,0.093-1.417,0.014-2.126c0,0,0-0.001,0-0.002C172.378,41.048,172.373,41.757,172.369,42.466z"
	/>
<path d="M346.534,60.802c0.001-0.691,0.002-1.381,0.003-2.071C346.371,59.422,346.383,60.111,346.534,60.802z"/>
<polygon points="346.537,58.73 346.537,58.729 346.537,58.73 "/>
<path d="M346.534,60.802c-0.151-0.69-0.163-1.38,0.003-2.071l0,0C346.267,59.421,346.257,60.111,346.534,60.802z"/>
<polygon points="346.537,58.73 346.537,58.73 346.537,58.73 "/>
<path d="M397.174,35.604c-0.038-0.662,0.206-1.345-0.151-1.982C397.183,34.274,396.944,34.957,397.174,35.604z"/>
<path d="M397.174,35.604c-0.229-0.647,0.009-1.33-0.151-1.982C397.047,34.284,396.837,34.965,397.174,35.604z"/>
<path d="M356.462,64.82c-0.499,0.036-1.029-0.188-1.49,0.174C355.453,64.807,355.986,65.057,356.462,64.82z"/>
<path d="M356.462,64.82c-0.476,0.236-1.009-0.014-1.49,0.174C355.474,64.979,355.993,65.114,356.462,64.82z"/>
<path d="M199.037,32.665c-0.424,0.016-0.872-0.161-1.259,0.154C198.187,32.681,198.635,32.864,199.037,32.665z"/>
<path d="M199.037,32.665c-0.402,0.199-0.85,0.016-1.259,0.154C198.204,32.82,198.646,32.951,199.037,32.665z"/>
<path d="M265.173,45.756c-0.2,0.405-0.001,0.862-0.168,1.272C265.344,46.641,265.156,46.185,265.173,45.756z"/>
<path d="M265.005,47.028c0.167-0.41-0.032-0.867,0.168-1.272C264.879,46.148,265.022,46.599,265.005,47.028z"/>
<path d="M205.665,32.827c-0.38-0.326-0.828-0.144-1.249-0.167c0,0,0,0,0.001,0C204.812,32.875,205.263,32.668,205.665,32.827z"/>
<path d="M205.665,32.827c-0.402-0.158-0.853,0.048-1.248-0.166C204.806,32.923,205.241,32.837,205.665,32.827z"/>
<path d="M353.021,64.978c-0.382-0.312-0.825-0.137-1.243-0.157c0.001,0,0.001,0,0.002,0.001
	C352.174,65.03,352.619,64.838,353.021,64.978z"/>
<path d="M353.021,64.978c-0.402-0.14-0.848,0.053-1.241-0.156C352.167,65.082,352.599,64.997,353.021,64.978z"/>
<path d="M265.177,44.469c-0.02-0.423,0.162-0.872-0.163-1.254C265.168,43.62,264.968,44.071,265.177,44.469z"/>
<path d="M265.177,44.469c-0.209-0.398-0.009-0.85-0.163-1.254C265.011,43.641,264.902,44.08,265.177,44.469z"/>
<path d="M85.24,61.269c-4.592,0.083-9.181,0.2-13.768,0.444c-3.205,0.171-6.058,0.963-8.008,3.782
	c-1.693,2.447-2.543,5.216-3.24,8.057c-0.146,0.596,0.142,0.659,0.622,0.654c1.599-0.017,3.197-0.006,4.796-0.006
	c0-0.101,0-0.201-0.001-0.301c2.874,0,5.75,0.082,8.621-0.017c6.972-0.239,11.439-4.55,12.073-11.471
	C86.42,61.468,86.125,61.252,85.24,61.269z"/>
<path d="M54.127,74.203c0.487,0.003,0.832,0.023,0.656-0.7c-0.625-2.573-1.385-5.09-2.798-7.354
	c-1.63-2.614-3.929-4.133-7.074-4.269c-1.355-0.059-2.705-0.253-4.06-0.298c-3.793-0.125-7.588-0.202-11.382-0.303
	c-0.505-0.014-0.84,0.074-0.811,0.718c0.316,6.734,4.412,10.851,10.265,11.673c3.446,0.485,6.934,0.381,10.405,0.531
	C50.929,74.201,52.528,74.196,54.127,74.203z"/>
<path d="M56.961,86.109c0.302,0.109,0.6,0.162,0.927,0.048c4.197-1.467,7.907-3.719,11.261-6.894c-7.856,0-15.489,0-23.3,0
	C49.19,82.406,52.849,84.626,56.961,86.109z"/>
</svg>
