<?xml version="1.0" encoding="utf-8"?>
<!-- Generator: Adobe Illustrator 16.0.3, SVG Export Plug-In . SVG Version: 6.00 Build 0)  -->
<!DOCTYPE svg PUBLIC "-//W3C//DTD SVG 1.1//EN" "http://www.w3.org/Graphics/SVG/1.1/DTD/svg11.dtd">
<svg version="1.1" id="Layer_1" xmlns="http://www.w3.org/2000/svg" xmlns:xlink="http://www.w3.org/1999/xlink" x="0px" y="0px"
	 width="1291.917px" height="289.175px" viewBox="0 0 1291.917 289.175" enable-background="new 0 0 1291.917 289.175"
	 xml:space="preserve">
<path fill-rule="evenodd" clip-rule="evenodd" fill="#FD0101" d="M411.122,145.378c0,14.486,0.688,29.013-0.176,43.446
	c-1.049,17.523-2.286,35.139-6.395,52.289c-4.728,19.736-16.481,33.391-36.368,39.174c-12.042,3.501-24.522,4.045-36.937,5.035
	c-20.545,1.642-41.12,2.284-61.722,2.784c-23.226,0.565-46.449,1.267-69.675,1.017c-28.601-0.309-57.203-0.925-85.792-1.798
	c-14.836-0.452-29.693-1.288-44.452-2.806c-11.565-1.189-23.379-1.951-34.074-7.458c-13.694-7.051-22.712-17.931-26.599-32.852
	c-4.744-18.212-6.004-36.884-7.182-55.581c-0.911-14.453-1.694-28.92-1.749-43.383c-0.074-19.6,1.171-39.188,2.636-58.727
	c1.052-14.037,2.474-28.128,6.439-41.741c4.878-16.751,15.593-28.284,31.958-34.366C49.142,7.4,57.701,6.588,66.261,5.731
	c36.573-3.657,73.271-3.983,109.967-4.973c15.84-0.427,31.705-1.151,47.492-0.497c24.307,1.008,48.635,0.799,72.937,2.077
	c12.336,0.649,24.706,1.158,37.006,2.137c12.602,1.003,25.363,1.61,37.52,5.875c14.367,5.042,24.235,14.769,30.269,28.57
	c4.002,9.155,5.157,19.033,6.413,28.752c3.331,25.776,4.097,51.732,4.282,77.704C411.805,145.377,411.463,145.377,411.122,145.378z
	 M165.021,144.613c0.005,0,0.01,0,0.015,0c0,11.745-0.005,23.491,0.002,35.236c0.005,7.871,0.096,15.743,0.004,23.613
	c-0.031,2.669,0.754,3.227,2.981,1.779c0.521-0.339,1.1-0.587,1.639-0.898c33.142-19.189,66.263-38.413,99.453-57.516
	c2.896-1.667,2.496-2.514,0.02-3.913c-6.056-3.421-12.077-6.904-18.098-10.387c-27.451-15.885-54.895-31.784-82.347-47.667
	c-3.412-1.974-3.666-1.822-3.667,2.027C165.018,106.131,165.021,125.372,165.021,144.613z"/>
<path fill-rule="evenodd" clip-rule="evenodd" fill="#2A2A2A" d="M1052.892,140.409c-0.002-41.619,0.029-83.238-0.068-124.857
	c-0.007-2.954,0.684-3.856,3.742-3.8c10.745,0.199,21.498,0.187,32.243,0c2.804-0.049,3.344,0.905,3.338,3.426
	c-0.07,28.62-0.048,57.242-0.052,85.862c0,0.625-0.06,1.252-0.02,1.874c0.051,0.813-0.367,1.98,0.789,2.199
	c1.008,0.191,1.412-0.926,1.784-1.636c1.77-3.375,4.383-6.05,7.089-8.628c12.285-11.704,32.337-14.333,45.645-6.063
	c6.838,4.25,10.506,10.817,13.067,18.086c4.021,11.405,4.892,23.345,5.706,35.299c1.429,20.973,1.048,41.979,0.424,62.935
	c-0.431,14.493-2.047,28.995-7.519,42.835c-6.676,16.888-20.128,25.275-38.196,22.844c-11.813-1.59-21.501-6.653-27.926-17.074
	c-0.428-0.695-0.875-1.743-1.931-1.415c-0.794,0.247-0.658,1.229-0.832,1.946c-0.966,3.986-2.2,7.924-2.875,11.957
	c-0.39,2.335-1.601,2.384-3.353,2.378c-9.373-0.034-18.748-0.107-28.119,0.04c-2.68,0.041-2.993-1.042-2.985-3.35
	c0.079-25.12,0.05-50.242,0.05-75.363C1052.894,173.404,1052.894,156.907,1052.892,140.409z M1092.099,180.679
	c0,15.624,0.168,31.251-0.105,46.87c-0.078,4.498,1.416,7.703,4.77,10.309c9.395,7.3,20.832,5.255,24.906-5.992
	c2.513-6.937,3.179-14.105,3.654-21.268c1.326-19.964,0.954-39.966,0.391-59.949c-0.245-8.714-0.716-17.445-2.911-25.978
	c-1.946-7.565-7.339-12.377-13.388-11.681c-8.767,1.009-17.327,10.739-17.327,19.69
	C1092.089,148.68,1092.088,164.679,1092.099,180.679z"/>
<path fill-rule="evenodd" clip-rule="evenodd" fill="#2A2A2A" d="M819.977,178.189c-0.003,28.994-0.04,57.987,0.062,86.98
	c0.009,2.608-0.561,3.499-3.276,3.448c-8.494-0.156-16.995-0.132-25.491-0.009c-2.613,0.038-3.732-0.633-3.972-3.48
	c-0.438-5.203-1.406-10.361-2.142-15.54c-0.124-0.869-0.109-1.897-1.111-2.178c-1.45-0.406-1.463,1.016-1.914,1.794
	c-4.598,7.935-10.432,14.765-19.013,18.387c-13.304,5.617-26.61,6.334-39.212-2.099c-6.461-4.324-9.526-11.023-11.445-18.233
	c-2.684-10.079-3.106-20.426-3.104-30.799c0.008-41.489,0.046-82.979-0.07-124.47c-0.01-3.486,0.728-4.711,4.458-4.62
	c10.865,0.263,21.745,0.226,32.613,0.018c3-0.058,3.787,0.673,3.781,3.686c-0.091,42.989-0.062,85.979-0.03,128.969
	c0.003,4.493,0.319,8.941,1.417,13.365c2.057,8.296,8,11.649,16.108,8.476c3.723-1.458,7.042-3.715,9.45-7.094
	c1.49-2.093,2.191-4.252,2.186-6.916c-0.082-45.364-0.027-90.729-0.132-136.092c-0.007-3.287,0.53-4.525,4.228-4.426
	c10.989,0.295,21.994,0.228,32.988,0.029c3.094-0.056,3.705,0.9,3.693,3.827C819.935,120.204,819.98,149.197,819.977,178.189z"/>
<path fill-rule="evenodd" clip-rule="evenodd" fill="#2A2A2A" d="M1028.537,178.032c-0.002,28.989-0.053,57.978,0.071,86.965
	c0.014,3.097-0.88,3.714-3.823,3.63c-8.115-0.229-16.246-0.22-24.361,0.016c-3.118,0.09-4.225-1.062-4.539-3.961
	c-0.525-4.83-1.274-9.636-2.016-14.439c-0.156-1.016,0.285-2.521-1.144-2.879c-1.658-0.414-1.472,1.274-1.988,2.151
	c-9.04,15.369-22.536,23.22-40.284,22.019c-15.889-1.076-25.33-8.044-29.793-25.934c-2.047-8.205-2.258-16.541-2.267-24.896
	c-0.042-42.983,0.028-85.966-0.1-128.949c-0.011-3.516,0.921-4.444,4.38-4.372c10.74,0.223,21.492,0.209,32.233,0.01
	c3.124-0.058,3.997,0.734,3.989,3.922c-0.107,43.107-0.048,86.216-0.104,129.323c-0.006,4.529,0.563,8.961,1.415,13.365
	c1.466,7.582,9.017,11.065,16.602,7.663c2.611-1.171,5.073-2.67,7.097-4.755c2.498-2.574,3.94-5.383,3.93-9.265
	c-0.128-45.356-0.047-90.713-0.158-136.07c-0.008-3.255,0.723-4.272,4.109-4.198c10.615,0.232,21.24,0.081,31.861,0.085
	c4.889,0.002,4.891,0.01,4.891,4.728C1028.54,120.806,1028.539,149.419,1028.537,178.032z"/>
<path fill-rule="evenodd" clip-rule="evenodd" fill="#2A2A2A" d="M688.148,186.135c0.307,12.484,0.243,24.994-1.793,37.331
	c-1.618,9.813-4.051,19.433-9.458,28.075c-6.995,11.181-17.444,16.585-30,18.747c-14.022,2.416-27.813,1.843-41.237-3.241
	c-10.523-3.983-17.428-11.72-21.807-21.777c-5.093-11.699-6.378-24.193-7.334-36.781c-1.309-17.221-1.014-34.469-0.519-51.665
	c0.43-14.897,1.746-29.868,7.698-43.94c6.41-15.154,17.452-24.312,33.737-27.349c10.973-2.046,21.867-2.112,32.707,0.312
	c15.777,3.527,25.953,13.496,31.44,28.446c4.468,12.173,6.218,24.877,6.511,37.757C688.353,163.405,688.148,174.772,688.148,186.135
	z M647.408,180.83c0-13.926-0.002-25.298,0.001-36.669c0.003-7.763-0.62-15.42-3.257-22.819c-1.929-5.414-5.973-8.944-10.998-9.31
	c-5.298-0.384-9.343,2.211-11.954,7.792c-3.306,7.065-3.829,14.748-3.95,22.289c-0.359,22.236-0.321,44.481-0.221,66.722
	c0.037,8.095,0.699,16.169,2.697,24.093c1.544,6.122,6.054,10.563,11.667,11.014c5.487,0.441,10.216-3.006,12.757-9.094
	c1.609-3.855,2.245-7.939,2.625-11.994C648.167,208.02,647.002,193.135,647.408,180.83z"/>
<path fill-rule="evenodd" clip-rule="evenodd" fill="#2A2A2A" d="M519.873,144.595c1.281-6.825,2.361-13.002,3.611-19.145
	c2.48-12.197,5.024-24.381,7.595-36.56c2.364-11.197,4.778-22.383,7.205-33.566c2.245-10.344,4.538-20.677,6.807-31.016
	c0.573-2.609,1.777-3.791,4.852-3.719c10.866,0.255,21.743,0.2,32.612,0.027c3.014-0.047,3.793,0.797,2.97,3.63
	c-3.124,10.74-6.217,21.489-9.226,32.26c-2.978,10.655-5.805,21.353-8.761,32.014c-2.819,10.166-5.726,20.307-8.584,30.462
	c-3.602,12.795-7.186,25.597-10.794,38.39c-2.563,9.088-5.121,18.179-7.761,27.244c-0.608,2.088-0.676,4.181-0.676,6.302
	c-0.001,24.619-0.05,49.237,0.082,73.854c0.016,2.919-0.632,3.898-3.656,3.855c-11.12-0.159-22.244-0.137-33.364-0.011
	c-2.712,0.031-3.604-0.602-3.586-3.537c0.144-24.617,0.072-49.236,0.112-73.854c0.01-6.503-2.712-12.361-4.239-18.491
	c-2.25-9.038-4.881-17.982-7.385-26.956c-2.507-8.982-5.085-17.945-7.579-26.931c-2.394-8.625-4.7-17.274-7.081-25.903
	c-2.479-8.982-5.016-17.949-7.5-26.929c-2.387-8.627-4.738-17.264-7.108-25.895c-1.416-5.156-2.672-10.364-4.324-15.444
	c-0.909-2.795-1.032-4.11,2.599-4.055c11.119,0.17,22.244,0.14,33.364,0.007c2.853-0.034,3.804,0.998,4.349,3.761
	c2.336,11.846,4.982,23.63,7.49,35.441c2.402,11.316,4.77,22.639,7.161,33.957c1.981,9.378,4.061,18.737,5.931,28.138
	c1.119,5.62,1.881,11.31,2.881,16.954C518.174,140.606,518.093,142.512,519.873,144.595z"/>
<path fill-rule="evenodd" clip-rule="evenodd" fill="#2A2A2A" d="M1258.41,191.828c-9.873,0.003-19.749,0.15-29.617-0.075
	c-3.561-0.081-4.409,1.106-4.359,4.519c0.152,10.365-0.118,20.748,1.204,31.055c0.782,6.1,1.74,12.371,8.443,15.127
	c10.133,4.166,19.15-1.773,20.634-13.48c0.564-4.448,1.443-8.875,1.318-13.387c-0.053-1.868,0.508-2.755,2.574-2.626
	c10.093,0.628,20.157,1.755,30.285,1.729c1.58-0.004,2.238,0.771,2.277,2.294c0.328,12.991-0.495,25.698-8.565,36.745
	c-5.521,7.557-13.118,12.127-21.855,14.724c-11.782,3.502-23.857,3.937-35.923,1.71c-15.083-2.785-26.127-10.765-32.078-25.363
	c-6.191-15.182-7.791-31.087-7.973-47.22c-0.168-14.993-0.445-30.01,0.17-44.982c0.682-16.563,2.473-33.077,11.147-47.833
	c6.404-10.894,16.342-16.621,28.499-19.082c11.064-2.241,22.106-2.083,33.092,0.157c13.548,2.764,23.003,10.619,28.215,23.518
	c4.229,10.465,5.529,21.498,5.803,32.594c0.385,15.612,0.08,31.24,0.217,46.86c0.021,2.499-0.699,3.107-3.141,3.074
	C1278.656,191.742,1268.533,191.825,1258.41,191.828z M1224.428,148.734c0,6.238,0.123,10.732-0.048,15.216
	c-0.1,2.607,0.775,3.621,3.418,3.481c3.234-0.17,6.487,0.04,9.726-0.077c5.454-0.198,10.933,0.578,16.364-0.427
	c1.234-5.398,0.508-10.874,0.49-16.301c-0.035-9.82-0.372-19.593-2.67-29.284c-2.315-9.77-12.236-11.628-19.063-8.03
	c-5.434,2.864-6.326,8.411-6.938,13.678C1224.802,134.775,1224.016,142.606,1224.428,148.734z"/>
<path fill-rule="evenodd" clip-rule="evenodd" fill="#2A2A2A" d="M850.364,161.225c0.002-34.375-0.038-68.749,0.065-103.124
	c0.01-3.365-0.83-4.653-4.41-4.587c-10.871,0.199-21.749-0.017-32.622,0.112c-2.363,0.029-3.355-0.323-3.312-2.989
	c0.146-8.997,0.087-17.999-0.006-26.997c-0.021-2.185,0.501-3.024,2.937-3.02c37.999,0.085,75.999,0.099,113.998-0.005
	c3.127-0.009,3.722,1.085,3.668,3.91c-0.166,8.622-0.172,17.25,0.007,25.872c0.053,2.538-0.684,3.235-3.137,3.214
	c-11.124-0.097-22.251,0.091-33.372-0.105c-3.324-0.059-4.255,0.935-4.252,4.222c0.084,68.999,0.038,137.998,0.15,206.997
	c0.005,3.228-0.848,3.959-3.932,3.909c-10.871-0.182-21.749-0.124-32.622-0.015c-2.403,0.024-3.23-0.558-3.225-3.146
	C850.392,230.723,850.361,195.973,850.364,161.225z"/>
</svg>
