<?xml version="1.0" encoding="utf-8"?>
<!-- Generator: Adobe Illustrator 16.0.3, SVG Export Plug-In . SVG Version: 6.00 Build 0)  -->
<!DOCTYPE svg PUBLIC "-//W3C//DTD SVG 1.1//EN" "http://www.w3.org/Graphics/SVG/1.1/DTD/svg11.dtd">
<svg version="1.1" id="Layer_1" xmlns="http://www.w3.org/2000/svg" xmlns:xlink="http://www.w3.org/1999/xlink" x="0px" y="0px"
	 width="385.708px" height="107.886px" viewBox="0 141.5 385.708 107.886" enable-background="new 0 141.5 385.708 107.886"
	 xml:space="preserve">
<g>
	<path fill="#F05661" d="M138.253,234.737c-12.921,9.617-31.704,14.744-47.866,14.756c-22.653,0.018-43.042-8.371-58.497-22.389
		c-1.215-1.096-0.127-2.602,1.33-1.742c16.662,9.717,37.248,15.578,58.524,15.563c14.347-0.012,30.129-3.029,44.631-9.221
		C138.567,230.766,140.404,233.159,138.253,234.737"/>
	<path fill="#F05661" d="M143.655,228.548c-1.667-2.111-10.957-0.99-15.125-0.482c-1.277,0.152-1.469-0.961-0.328-1.758
		c7.416-5.24,19.554-3.742,20.968-1.988c1.416,1.758-0.364,13.996-7.308,19.852c-1.072,0.895-2.078,0.398-1.609-0.764
		C141.81,239.477,145.314,230.686,143.655,228.548"/>
	<path fill="#F05661" d="M128.789,189.339l-0.004-5.084c-0.001-0.768,0.585-1.293,1.278-1.293l22.674-0.02
		c0.725,0,1.305,0.539,1.305,1.293l0.002,4.348c0.001,0.736-0.614,1.686-1.71,3.203l-11.718,16.863
		c4.367-0.109,8.964,0.547,12.922,2.793c0.904,0.492,1.153,1.248,1.209,1.982l0.003,5.418c0,0.752-0.81,1.605-1.668,1.158
		c-6.97-3.664-16.238-4.066-23.955,0.064c-0.783,0.422-1.608-0.416-1.608-1.174l-0.004-5.164c-0.001-0.824,0.011-2.223,0.838-3.488
		l13.59-19.629l-11.845,0.01C129.375,190.62,128.79,190.106,128.789,189.339"/>
	<path fill="#F05661" d="M46.124,221.155l-6.902,0.006c-0.651-0.035-1.18-0.529-1.238-1.16l-0.016-35.58
		c0-0.709,0.582-1.283,1.324-1.283l6.423-0.004c0.68,0.031,1.221,0.537,1.252,1.186l0.003,4.645h0.137
		c1.667-4.494,4.823-6.592,9.065-6.594c4.319-0.004,7.026,2.088,8.957,6.58c1.669-4.494,5.471-6.592,9.522-6.594
		c2.904-0.002,6.064,1.184,7.993,3.889c2.18,2.996,1.749,7.328,1.752,11.143l-0.002,22.457c0,0.721-0.577,1.281-1.324,1.281
		l-6.892,0.006c-0.688-0.047-1.23-0.592-1.23-1.279l-0.015-18.85c-0.001-1.508,0.119-5.246-0.2-6.672
		c-0.524-2.391-2.06-3.066-4.063-3.064c-1.672,0.002-3.419,1.131-4.12,2.924c-0.706,1.793-0.629,4.783-0.627,6.82l0.015,18.85
		c0,0.719-0.606,1.281-1.339,1.281l-6.888,0.006c-0.697-0.047-1.241-0.594-1.242-1.281l-0.024-18.85
		c-0.003-3.979,0.639-9.813-4.253-9.809c-4.946,0.002-4.76,5.684-4.758,9.814l0.015,18.852
		C47.448,220.593,46.862,221.153,46.124,221.155"/>
	<path fill="#F05661" d="M173.559,182.276c10.229-0.008,15.777,8.824,15.785,20.045c0.008,10.863-6.095,19.475-15.754,19.482
		c-10.032,0.008-15.518-8.816-15.526-19.82C158.055,190.893,163.58,182.284,173.559,182.276 M173.627,189.53
		c-5.091,0.004-5.398,6.969-5.396,11.324c0.004,4.33-0.048,13.631,5.353,13.629c5.338-0.006,5.591-7.504,5.588-12.072
		c-0.003-3-0.13-6.592-1.029-9.439C177.358,190.507,175.823,189.528,173.627,189.53"/>
	<path fill="#F05661" d="M202.64,221.034l-6.873,0.004c-0.694-0.045-1.24-0.592-1.24-1.277l-0.039-35.59
		c0.06-0.643,0.63-1.154,1.325-1.154l6.394-0.006c0.602,0.033,1.099,0.434,1.231,0.988l0.005,5.443h0.125
		c1.932-4.873,4.625-7.191,9.398-7.193c3.083-0.004,6.125,1.111,8.049,4.17c1.811,2.859,1.814,7.648,1.816,11.092l0.018,22.391
		c-0.076,0.635-0.647,1.115-1.331,1.119l-6.913,0.006c-0.642-0.037-1.142-0.52-1.221-1.119l-0.015-19.318
		c-0.003-3.898,0.448-9.588-4.323-9.584c-1.676,0-3.221,1.131-3.987,2.846c-0.963,2.176-1.092,4.348-1.089,6.744l0.015,19.156
		C203.964,220.469,203.375,221.032,202.64,221.034"/>
	<path fill="#F05661" d="M123.016,214.573c-1.267-1.744-2.603-3.164-2.605-6.426l-0.01-10.793c-0.003-4.578,0.33-8.779-3.032-11.934
		c-2.651-2.545-7.047-3.441-10.401-3.439c-6.557,0.006-13.884,2.482-15.41,10.613c-0.174,0.883,0.466,1.334,1.036,1.469l6.678,0.713
		c0.621-0.033,1.087-0.648,1.194-1.279c0.583-2.797,2.91-4.154,5.546-4.156c1.411-0.002,3.02,0.523,3.869,1.793
		c0.979,1.426,0.842,3.383,0.844,5.023v0.898c-3.999,0.457-9.221,0.758-12.966,2.42c-4.318,1.883-7.354,5.709-7.352,11.332
		c0.007,7.211,4.52,10.803,10.329,10.799c4.912-0.004,7.588-1.17,11.376-5.053c1.247,1.822,1.672,2.709,3.957,4.615
		c0.514,0.289,1.176,0.262,1.625-0.164l0.013,0.018c1.386-1.223,3.88-3.42,5.297-4.611
		C123.558,215.956,123.444,215.206,123.016,214.573z M109.442,211.475c-1.097,1.949-2.823,3.148-4.76,3.152
		c-2.656,0-4.203-2.02-4.205-5.037c-0.006-5.883,5.256-6.98,10.251-6.984v1.508C110.731,206.825,110.796,209.069,109.442,211.475z"
		/>
	<path fill="#F05661" d="M32.607,214.641c-1.272-1.744-2.606-3.164-2.608-6.424l-0.007-10.795
		c-0.004-4.578,0.309-8.777-3.055-11.934c-2.631-2.541-7.025-3.439-10.381-3.438c-6.563,0.006-13.882,2.482-15.416,10.613
		c-0.159,0.883,0.47,1.334,1.024,1.471l6.697,0.711c0.621-0.035,1.073-0.65,1.192-1.277c0.564-2.799,2.911-4.158,5.546-4.16
		c1.416,0,3.028,0.525,3.867,1.793c0.97,1.426,0.85,3.385,0.85,5.025l0.003,0.898c-4.005,0.455-9.228,0.758-12.972,2.42
		c-4.313,1.883-7.352,5.709-7.348,11.334c0.006,7.207,4.529,10.801,10.324,10.797c4.918-0.002,7.589-1.17,11.372-5.053
		c1.255,1.82,1.659,2.709,3.962,4.617c0.518,0.287,1.18,0.26,1.626-0.166l0.018,0.018c1.366-1.225,3.88-3.422,5.291-4.611
		C33.149,216.028,33.041,215.274,32.607,214.641z M19.04,211.548c-1.1,1.947-2.844,3.146-4.777,3.148
		c-2.646,0.002-4.194-2.018-4.198-5.035c-0.004-5.885,5.255-6.98,10.257-6.984l0.001,1.51
		C20.326,206.895,20.382,209.141,19.04,211.548z"/>
	<polyline fill="#F05661" points="266.739,173.35 233.804,173.376 233.799,167.585 266.734,167.559 266.739,173.35 	"/>
	<polyline fill="#F05661" points="266.731,164.664 233.797,164.689 233.792,158.899 266.729,158.873 266.731,164.664 	"/>
	<polyline fill="#F05661" points="266.726,155.977 233.791,156.003 233.786,150.213 266.721,150.186 266.726,155.977 	"/>
	<polyline fill="#F05661" points="266.719,147.292 233.784,147.317 233.779,141.526 266.715,141.501 266.719,147.292 	"/>
	<polyline fill="#F05661" points="302.528,173.323 269.594,173.348 269.588,167.557 302.525,167.532 302.528,173.323 	"/>
	<polyline fill="#F05661" points="302.522,164.635 269.585,164.662 269.583,158.871 302.518,158.844 302.522,164.635 	"/>
	<polyline fill="#F05661" points="338.361,173.294 305.424,173.319 305.419,167.528 338.356,167.503 338.361,173.294 	"/>
	<polyline fill="#F05661" points="338.354,164.608 305.416,164.634 305.414,158.843 338.348,158.817 338.354,164.608 	"/>
	<polyline fill="#F05661" points="338.348,155.923 305.412,155.946 305.405,150.157 338.343,150.132 338.348,155.923 	"/>
	<path fill="#F05661" d="M316.981,213.626c0.079-0.152,0.315-0.309,0.471-0.311c0.154,0,0.39,0.078,0.625,0.156
		c3.445,1.701,6.895,2.629,9.557,2.627c3.76-0.002,6.262-2.252,6.259-5.58c-0.002-2.631-1.336-4.176-5.015-5.873
		c-5.25-2.398-6.897-3.248-8.779-4.797c-2.425-1.936-3.603-4.332-3.606-7.352c-0.005-6.268,4.927-10.764,11.897-10.768
		c4.072-0.004,10.103,1.93,10.103,3.246c0,0.152,0,0.152-0.153,0.539l-1.407,2.867c-0.158,0.232-0.472,0.465-0.707,0.465
		c-0.155,0-0.315-0.078-0.628-0.154c-2.978-1.393-5.247-2.008-7.36-2.006c-3.761,0.002-5.952,1.939-5.949,5.188
		c0,1.471,0.551,2.861,1.568,3.793c1.1,1.004,1.1,1.004,8.224,4.404c5.8,2.781,7.835,5.334,7.838,9.979
		c0.005,6.58-5,10.996-12.438,11.002c-3.917,0.004-8.381-1.156-11.589-3.012c-0.395-0.232-0.474-0.385-0.474-0.693
		c0-0.154,0-0.154,0.079-0.314L316.981,213.626"/>
	<path fill="#F05661" d="M346.516,184.391c-0.003-0.785,0.05-0.941,0.833-0.943h4.147c0.704,0,0.864,0.154,0.864,0.938v35.289
		c0,0.787-0.603,1.355-1.309,1.355l-3.308,0.004c-0.706,0-1.229-0.611-1.229-1.4L346.516,184.391"/>
	<path fill="#F05661" d="M384.291,190.251c-0.238,0.391-0.392,0.547-0.625,0.549c-0.161,0-0.394-0.08-0.63-0.311
		c-3.837-2.816-5.402-3.523-8.067-3.521c-6.264,0.004-9.47,4.941-9.461,14.57c0.007,9.791,2.906,14.645,8.702,14.641
		c3.131-0.002,4.774-0.711,9.235-3.848c0.236-0.156,0.39-0.236,0.548-0.236c0.238,0,0.391,0.16,0.551,0.477l1.172,2.971
		c0.077,0.232,0.237,0.701,0.237,0.779c0,0.395-0.393,0.861-1.252,1.492c-3.205,2.35-7.121,3.684-10.96,3.688
		c-9.314,0.006-14.799-7.111-14.81-19.016c-0.007-12.842,6.012-20.756,15.877-20.764c3.366-0.002,6.66,1.014,9.554,3.051
		c1.257,0.857,1.727,1.404,1.727,1.955l-0.078,0.469L384.291,190.251"/>
	<path fill="#F05661" d="M276.309,194.321c-0.005-4.436-0.011-11.965-10.078-11.957c-3.929,0.002-7.352,2.678-9.062,5.99
		c-1.219-4.293-3.86-5.98-8.288-5.977c-3.629,0.002-7.519,1.902-9.161,5.211l-0.002-3.055c0-0.684-0.541-1.229-1.238-1.268
		l-3.478,0.004c-0.691,0-1.261,0.504-1.319,1.148v35.379c0,0.686,0.582,1.229,1.278,1.273l3.481-0.002
		c0.692,0,1.262-0.51,1.317-1.152l-0.019-24.863c-0.005-5.916,4.36-7.605,7.143-7.607c4.208-0.004,4.978,3.43,5.112,6.229v26.375
		c0,0.676,0.696,1.02,1.397,1.061l3.366-0.004c0.69,0,1.23-0.523,1.287-1.057v-25.178c0.082-5.764,4.358-7.438,7.118-7.439
		c4.296-0.004,5.01,3.578,5.123,6.412l0.022,26.174c0,0.506,0.455,0.908,1.043,1.014l-0.009,0.041l3.667-0.002
		c0.692-0.002,1.263-0.422,1.317-0.957l-0.005-7.098L276.309,194.321"/>
	<path fill="#F05661" d="M284.197,215.473c0.73,1.967,3.571,5.982,9.301,5.979c5.366-0.006,8.489-1.902,10.102-5.215l0.003,3.053
		c0,0.684,0.529,1.232,1.214,1.271l3.424-0.002c0.68,0,1.212-0.508,1.271-1.15V184.03c0-0.688-0.546-1.23-1.233-1.275l-3.424,0.004
		c-0.677,0-1.196,0.508-1.251,1.15v24.861c0.002,5.916-5.535,7.594-9.291,7.611c-4.14,0.018-4.895-3.428-5.028-6.232l-0.021-26.371
		c-0.124-0.572-0.667-1.021-1.352-1.059l-3.316,0.002c-0.674,0.002-1.228,0.424-1.285,0.957v25.277
		C283.31,208.956,283.464,213.512,284.197,215.473"/>
	<path fill="#F05661" d="M351.484,167.711l-4.149,0.003c-0.78,0-0.861,0.141-0.858,0.846v0.607l0.002,2.999v0.576
		c0,0.704,0.158,0.845,0.861,0.845l4.151-0.003c0.781-0.001,0.862-0.142,0.862-0.846l-0.002-0.61l-0.003-2.994v-0.578
		C352.348,167.85,352.189,167.71,351.484,167.711"/>
</g>
</svg>
