<?xml version="1.0" encoding="utf-8"?>
<!-- Generator: Adobe Illustrator 16.0.3, SVG Export Plug-In . SVG Version: 6.00 Build 0)  -->
<!DOCTYPE svg PUBLIC "-//W3C//DTD SVG 1.1//EN" "http://www.w3.org/Graphics/SVG/1.1/DTD/svg11.dtd">
<svg version="1.1" id="Layer_1" xmlns="http://www.w3.org/2000/svg" xmlns:xlink="http://www.w3.org/1999/xlink" x="0px" y="0px"
	 width="100px" height="44.99px" viewBox="0 0 100 44.99" enable-background="new 0 0 100 44.99" xml:space="preserve">
<g>
	<path fill="#FFD1A0" d="M82.049,30.195c0.986,0.209,2.323,0.391,3.276,0.457c0.632,0.047,0.992-0.096,1.174-0.764
		c0.569-2.096,0.479-3.293,2.818-3.203c0.036,0.002,1.817,0.041,1.854,0.041c2.149,0,2.158,1.004,2.439,3.184
		c0.291,2.24,0.772,2.223,1.723,2.137c0.148-0.012,1.503-0.207,2.204-0.402c0.654-0.184,1.037-0.521,0.936-1.15
		c-0.059-0.361-1.45-5.975-2.05-8.58c-0.715-3.11-1.444-6.217-2.125-9.334c-0.203-0.924-0.604-1.112-1.598-1.141
		c-1.328-0.039-2.562-0.008-3.845,0.189c-0.932,0.145-1.401,0.42-1.705,1.135c-0.311,0.734-0.615,1.488-0.848,2.242
		c-1.411,4.578-3.238,9.695-4.895,14.197C81.195,29.777,81.283,30.031,82.049,30.195z M89.198,21.347
		c0.117-0.382,0.592-2.88,1.144-2.749c0.341-0.07,0.674,2.352,0.732,3.052c0.064,0.775-0.562,0.63-1.173,0.634
		C89.212,22.301,88.998,22.001,89.198,21.347z"/>
	<path fill="#FFD1A0" d="M35.407,15.857c0.656,4.734,0.725,7.242,1.097,10.309c0.549,4.561,0.905,11.586,1.219,16.166
		c0.062,0.879,0.771,1.24,1.714,1.365c1.838,0.24,3.808,0.313,5.642,0.219c1.237,0.014,2.261,0,3.601-0.041
		c0.822-0.025,1.16-0.342,1.162-1.088c0.002-1.406-0.102-3.338-0.225-4.039c-0.088-0.492-0.393-0.766-0.966-0.752
		c-1.649,0.041-6.059,0.535-6.305-1.01c-0.549-3.479-0.84-14.63-0.952-20.136c-0.055-2.599,0.275-10.052-0.7-10.116
		c-1.575-0.105-3.474,0.132-4.814,0.4c-0.906,0.181-1.222,0.433-1.143,1.623C34.902,11.139,35.081,13.484,35.407,15.857z"/>
	<path fill="#FFD1A0" d="M69.589,38.563c-0.002,0.639,0.499,0.859,1.205,0.859c2.389,0.004,4.479-0.258,7.15-0.217
		c2.595,0.039,5.104,0.168,7.738,0.066c0.714-0.029,1.131-0.352,1.171-1.129c0.069-1.242,0.033-2.141-0.013-3.41
		c-0.036-0.971-0.333-1.293-1.287-1.238c-3.083,0.172-6.168-0.018-9.251-0.111c-1.657-0.049-1.946-0.029-1.856-1.736
		c0.031-0.588,0.307-9.215,0.578-13.329c0.141-2.089,0.468-5.747,0.304-6.643c-0.107-0.578-3.091-1.634-4.15-1.69
		c-0.846-0.049-1.247,0.334-1.287,1.279C69.777,14.03,69.62,32.287,69.589,38.563z"/>
	<path fill="#FFD1A0" d="M48.145,34.236c1.005,0.197,1.764,0.264,2.725,0.338c0.634,0.045,0.977-0.104,1.174-0.766
		c1.166-3.914,1.358-5.908,3.827-5.9c0.429,0.002,0.951,0,1.251,0.02c1.399,0.082,1.894,0.027,2.707,2.438
		c0.118,0.354,0.46,1.602,0.538,1.988c0.505,2.502,1.161,2.48,3.715,1.945c0.142-0.031,0.283-0.068,0.429-0.104
		c1.059-0.246,1.008-0.555,0.934-1.146c-0.044-0.363-1.9-7.215-2.499-9.817c-0.717-3.109-1.469-6.228-2.148-9.345
		c-0.203-0.926-0.611-1.25-1.599-1.142c-1.309,0.146-2.522,0.324-4.019,0.72c-0.91,0.241-1.626,0.408-1.927,1.123
		c-0.313,0.736-0.322,0.82-0.552,1.574c-1.412,4.577-4.33,12.488-5.985,16.99C46.503,33.725,47.377,34.09,48.145,34.236z
		 M55.93,21.84c0.146-0.479,0.414-1.526,1.04-1.834c0.562-0.221,0.605,1.358,0.618,2.059c0.013,0.627-0.345,0.605-0.96,0.593
		C55.905,22.602,55.728,22.492,55.93,21.84z"/>
	<path fill="#FFD1A0" d="M0.329,34.941c0,2.977-0.219,4.965-0.322,7.936c-0.043,1.24,0.454,1.527,1.535,1.635
		c3.548,0.355,6.996,0.68,10.492,0.324c0.639-0.064,0.726-0.516,0.726-1.033c0.003-1.943-0.015-3.893,0.025-5.838
		c0.015-0.777-0.3-1.023-1.043-1.027c-1.357-0.01-2.629,0.154-4.094,0.066C6.513,36.93,5.914,36.488,5.9,35.492
		c-0.049-3.563,0.082-6.947,0.218-10.504c0.236-6.082,1.613-13.225-0.025-13.103c-2.139,0.161-4.138,0.593-5.382,0.946
		c-0.604,0.17-0.708,0.979-0.708,1.627c0,1.639,0.178,3.662,0.197,5.168C0.286,26.307,0.412,32.701,0.329,34.941z"/>
	<path fill="#FFD1A0" d="M17.021,38.604c1.14,0.199,2.264,0.264,3.257,0.332c0.635,0.047,0.995-0.094,1.176-0.762
		c0.569-2.098,1.017-4.938,3.144-4.936c0.036,0,0.678-0.006,0.713-0.006c2.482,0,2.652-0.008,3.38,2.428
		c0.165,0.539,0.272,1.207,0.346,1.592c0.334,1.752,0.442,1.969,2.993,1.432c0.142-0.031,0.822-0.182,0.952-0.248
		c0.846-0.441,0.465-1.74,0.394-2.1c-0.726-3.502-3.718-13.528-4.478-16.049c-0.272-0.906-0.709-1.282-1.678-1.505
		c-1.354-0.303-1.802-0.465-3.083-0.571c-0.939-0.076-1.401,0.42-1.705,1.135c-0.312,0.736-0.618,1.49-0.849,2.24
		c-1.411,4.58-3.547,11.523-5.204,16.025C16.168,38.184,16.25,38.467,17.021,38.604z M24.405,27.836
		c0.115-0.369,0.542-2.367,1.534-2.857c0.471,0.189,0.739,2.178,0.98,3.262c0.202,0.916-1.003,0.811-1.518,0.803
		C24.312,29.072,24.083,28.871,24.405,27.836z"/>
	<path fill="#FFD1A0" d="M91.559,9.236c0.96,0.446,1.586,0.417,1.983-0.107c0.319-0.418,2.833-3.414,3.507-3.918
		c1.431-1.074,2.562-2.18,2.891-2.589c0.326-0.407-0.795-1.533-1.891-2.222c-0.893-0.562-1.767-0.463-2.015-0.129
		c-0.296,0.4-1.738,1.799-2.17,2.209c-0.145,0.138-1.562,1.738-1.68,1.848c-0.939,0.864-2.041,2.576-2.265,3.049
		C89.578,8.097,91.559,9.236,91.559,9.236z"/>
</g>
</svg>
