<?xml version="1.0" encoding="utf-8"?>
<!-- Generator: Adobe Illustrator 16.0.3, SVG Export Plug-In . SVG Version: 6.00 Build 0)  -->
<!DOCTYPE svg PUBLIC "-//W3C//DTD SVG 1.1//EN" "http://www.w3.org/Graphics/SVG/1.1/DTD/svg11.dtd">
<svg version="1.1" xmlns="http://www.w3.org/2000/svg" xmlns:xlink="http://www.w3.org/1999/xlink" x="0px" y="0px"
	 width="205.454px" height="500.91px" viewBox="0 0 205.454 500.91" enable-background="new 0 0 205.454 500.91"
	 xml:space="preserve">
<g id="Layer_2">
</g>
<g id="Layer_1">
	<g>
		<image overflow="visible" width="127" height="247" xlink:href="2052682D.png"  transform="matrix(1 0 0 1 76 254.3027)">
		</image>
		<image overflow="visible" width="127" height="247" xlink:href="2052682F.png"  transform="matrix(1 0 0 1 76 254.3027)">
		</image>
		<path fill="#FFFFFF" d="M166,254.303H2.805l0.195,158c0,42.53,30.977,75.741,73.485,85.601c0.269,0.045,0.612,0.138,0.943,0.169
			c58.405,5.48,90.571-38.02,92.571-88.77l0.222-155H166z"/>
		<image overflow="visible" width="157" height="255" xlink:href="2052682A.png"  transform="matrix(1 0 0 1 49 -0.6973)">
		</image>
		<path fill="#F05661" d="M73.168,8.803c-7.666,0-17.418,2-24.129,4.379C19.854,28.757,0,56.604,0,88.371v165.932h174V99.371
			C171.301,50.565,147.234,8.803,73.168,8.803z"/>
		<image overflow="visible" width="164" height="255" xlink:href="2052682B.png"  transform="matrix(1 0 0 1 49 -0.6973)">
		</image>
	</g>
</g>
<g id="Layer_3">
</g>
</svg>
