<?xml version="1.0" encoding="utf-8"?>
<!-- Generator: Adobe Illustrator 16.0.3, SVG Export Plug-In . SVG Version: 6.00 Build 0)  -->
<!DOCTYPE svg PUBLIC "-//W3C//DTD SVG 1.1//EN" "http://www.w3.org/Graphics/SVG/1.1/DTD/svg11.dtd">
<svg version="1.1" id="Layer_1" xmlns="http://www.w3.org/2000/svg" xmlns:xlink="http://www.w3.org/1999/xlink" x="0px" y="0px"
	 width="288px" height="89.552px" viewBox="0 0 288 89.552" enable-background="new 0 0 288 89.552" xml:space="preserve">
<path fill-rule="evenodd" clip-rule="evenodd" fill="#1ED660" d="M89.559,44.785c0.001,24.742-20.053,44.779-44.807,44.768
	C20.007,89.541-0.017,69.486,0,44.73C0.017,20.111,20.055-0.014,44.544,0C69.53,0.011,89.558,19.937,89.559,44.785z M38.374,23.683
	c-4.214,0.016-8.415,0.242-12.585,0.861c-3.003,0.445-5.978,1.041-8.887,1.928c-2.44,0.744-3.679,3.254-2.771,5.578
	c0.812,2.076,2.971,3.084,5.291,2.408c4.832-1.408,9.779-2.068,14.789-2.307c5.637-0.27,11.25,0.01,16.831,0.875
	c7.105,1.102,13.935,3.031,20.219,6.648c2.107,1.215,4.607,0.529,5.774-1.494c1.188-2.059,0.481-4.533-1.658-5.785
	c-3.124-1.826-6.412-3.293-9.836-4.453C56.729,24.964,47.641,23.742,38.374,23.683z M37.366,39.111
	c-3.247-0.033-6.471,0.207-9.677,0.676c-2.807,0.408-5.579,1.006-8.292,1.84c-1.957,0.604-2.967,2.539-2.36,4.424
	c0.569,1.77,2.37,2.756,4.215,2.299c1.447-0.359,2.877-0.797,4.336-1.096c6.448-1.311,12.941-1.461,19.46-0.637
	c7.43,0.943,14.479,3.041,20.948,6.908c1.726,1.033,3.809,0.502,4.821-1.162c1.002-1.646,0.482-3.74-1.235-4.803
	c-0.951-0.59-1.928-1.141-2.924-1.648C57.463,41.199,47.636,39.191,37.366,39.111z M37.229,53.701
	c-5.122,0.045-10.714,0.756-16.235,2.041c-1.606,0.375-2.539,1.783-2.208,3.273c0.361,1.617,1.758,2.506,3.438,2.146
	c3.874-0.83,7.769-1.479,11.729-1.725c4.544-0.281,9.055-0.109,13.534,0.744c4.935,0.939,9.572,2.658,13.875,5.26
	c0.712,0.43,1.464,0.621,2.283,0.381c1.199-0.35,1.917-1.164,2.058-2.391c0.145-1.27-0.462-2.182-1.545-2.832
	C56.037,55.724,47.171,53.71,37.229,53.701z"/>
<path fill-rule="evenodd" clip-rule="evenodd" fill="#1FD660" d="M272.305,55.767c0.893-2.539,1.748-4.973,2.598-7.406
	c1.539-4.385,3.09-8.768,4.602-13.162c0.215-0.627,0.516-0.85,1.178-0.838c2.115,0.039,4.234,0.01,6.35,0.018
	c0.816,0.002,0.986,0.248,0.689,1.008c-4.066,10.5-8.135,20.998-12.217,31.492c-0.598,1.533-1.363,2.982-2.338,4.32
	c-1.68,2.309-3.957,3.498-6.781,3.67c-2.844,0.168-5.541-0.357-8.072-1.709c-0.543-0.289-0.654-0.58-0.4-1.119
	c0.699-1.484,1.391-2.975,2.043-4.479c0.27-0.629,0.605-0.762,1.211-0.443c1.232,0.646,2.541,1.004,3.949,0.9
	c1.352-0.1,2.98-1.549,3.215-2.861c0.041-0.219-0.059-0.387-0.137-0.568c-3.166-7.596-6.336-15.188-9.486-22.789
	c-0.18-0.432-0.43-0.52-0.848-0.516c-1.719,0.018-3.438,0.033-5.154-0.008c-0.59-0.016-0.689,0.188-0.688,0.723
	c0.018,7.473,0.014,14.945,0.014,22.418c0,1.117-0.045,1.158-1.191,1.16c-1.92,0-3.838,0.002-5.756-0.002
	c-0.9-0.002-0.986-0.086-0.986-0.979c-0.002-7.471-0.012-14.945,0.018-22.416c0.002-0.711-0.154-0.977-0.893-0.904
	c-0.691,0.068-1.396-0.018-2.09,0.025c-0.703,0.041-0.912-0.271-0.902-0.932c0.031-1.717,0.033-3.438-0.002-5.154
	c-0.012-0.697,0.287-0.936,0.938-0.918c0.773,0.021,1.547-0.025,2.316,0.016c0.512,0.027,0.637-0.166,0.623-0.645
	c-0.051-1.771,0.053-3.533,0.59-5.242c1.086-3.461,3.525-5.318,7.033-5.836c2.547-0.377,5.059-0.104,7.541,0.568
	c0.531,0.143,0.717,0.404,0.709,0.943c-0.025,1.693-0.008,3.389-0.012,5.082c-0.002,0.881-0.186,1.016-1.027,0.764
	c-1.389-0.418-2.793-0.74-4.258-0.537c-1.539,0.215-2.359,1.004-2.641,2.512c-0.457,2.451-0.457,2.451,1.99,2.451
	c3.063,0,6.127,0.02,9.191-0.016c0.664-0.006,0.967,0.232,1.193,0.832c2.49,6.553,5.004,13.096,7.51,19.641
	C272.031,55.109,272.148,55.38,272.305,55.767z"/>
<path fill-rule="evenodd" clip-rule="evenodd" fill="#1FD660" d="M145.736,61.82c0,4,0,7.807,0,11.615c0,1.287,0,1.287-1.283,1.287
	c-1.894,0-3.786-0.02-5.678,0.012c-0.686,0.01-0.98-0.178-0.979-0.928c0.018-12.852,0.017-25.703,0.001-38.555
	c0-0.684,0.228-0.92,0.91-0.908c2.042,0.031,4.084,0.031,6.127,0c0.688-0.01,0.934,0.256,0.912,0.926
	c-0.033,0.963-0.01,1.93-0.01,2.867c0.18,0.094,0.234-0.021,0.287-0.086c5.363-6.301,14.412-5.131,19.26-0.404
	c2.738,2.672,4.172,5.965,4.6,9.713c0.463,4.047-0.006,7.949-2.021,11.566c-3.59,6.441-11.803,9.129-18.174,5.961
	C148.223,64.16,146.984,63.138,145.736,61.82z M145.58,48.966c-0.018,3.094,0.514,5.033,1.717,6.76
	c3.361,4.834,10.635,4.568,13.395-0.541c1.813-3.355,1.822-6.852,0.086-10.234c-2.201-4.289-7.586-5.551-11.502-2.75
	C146.637,44.089,145.625,46.812,145.58,48.966z"/>
<path fill-rule="evenodd" clip-rule="evenodd" fill="#1FD660" d="M120.143,66.121c-6.268-0.064-11.776-2.143-16.546-6.213
	c-0.542-0.465-0.589-0.814-0.122-1.352c1.257-1.447,2.492-2.916,3.702-4.402c0.434-0.533,0.768-0.541,1.286-0.102
	c2.472,2.107,5.174,3.805,8.41,4.467c2.291,0.473,4.597,0.625,6.866-0.111c2.546-0.826,3.739-2.811,3.199-5.211
	c-0.319-1.416-1.372-2.137-2.568-2.709c-2.308-1.105-4.817-1.557-7.265-2.203c-2.287-0.604-4.54-1.303-6.646-2.408
	c-4.301-2.258-6.083-5.789-5.724-10.801c0.383-5.332,4.256-9.742,10.663-10.814c6.521-1.09,12.499,0.414,17.807,4.416
	c0.886,0.668,0.886,0.699,0.25,1.596c-1.008,1.422-2.018,2.842-3.027,4.262c-0.68,0.961-0.685,0.957-1.619,0.295
	c-2.485-1.764-5.148-3.121-8.215-3.516c-1.666-0.213-3.33-0.213-4.938,0.395c-2.239,0.844-3.266,2.641-2.803,4.869
	c0.263,1.27,1.151,2.002,2.216,2.557c1.664,0.871,3.467,1.361,5.275,1.822c2.916,0.74,5.838,1.459,8.542,2.842
	c2.992,1.533,5.267,3.676,5.957,7.115c1.423,7.105-2.563,13.105-9.73,14.695C123.475,65.974,121.821,66.15,120.143,66.121z"/>
<path fill-rule="evenodd" clip-rule="evenodd" fill="#1FD660" d="M188.637,33.732c7.424,0.076,13.439,4.154,15.799,10.566
	c3.641,9.887-2.879,20.525-13.35,21.789c-7.371,0.889-14.029-2.504-17.188-8.762c-4.988-9.885,1.377-21.953,12.344-23.418
	C187.109,33.791,187.975,33.767,188.637,33.732z M197.486,50.037c0.039-0.803-0.082-1.719-0.334-2.605
	c-0.895-3.176-2.828-5.428-6.061-6.301c-3.186-0.859-6.111-0.223-8.439,2.203c-2.227,2.318-2.787,5.182-2.373,8.303
	c0.742,5.58,6.418,9.012,11.678,7.039C195.35,57.402,197.439,54.183,197.486,50.037z"/>
<path fill-rule="evenodd" clip-rule="evenodd" fill="#1FD660" d="M209.793,50.087c0-2.664-0.025-5.33,0.016-7.996
	c0.012-0.68-0.197-0.857-0.842-0.813c-0.768,0.055-1.543,0.006-2.316,0.016c-0.473,0.006-0.672-0.205-0.67-0.678
	c0.01-1.867,0.008-3.736,0.002-5.604c-0.002-0.484,0.236-0.666,0.693-0.66c0.824,0.01,1.646-0.029,2.465,0.014
	c0.541,0.027,0.666-0.178,0.662-0.684c-0.025-2.193-0.012-4.385-0.008-6.576c0.002-0.979,0.1-1.078,1.057-1.078
	c1.992-0.004,3.986,0.016,5.977-0.012c0.682-0.008,0.938,0.262,0.934,0.928c-0.02,2.217,0.016,4.434-0.023,6.65
	c-0.01,0.637,0.193,0.783,0.801,0.773c2.143-0.037,4.283,0.004,6.426-0.025c0.68-0.01,0.93,0.227,0.916,0.912
	c-0.033,1.693-0.008,3.389-0.01,5.08c-0.002,0.898-0.064,0.955-1,0.955c-2.143,0.002-4.283,0.021-6.426-0.012
	c-0.572-0.01-0.707,0.17-0.705,0.719c0.023,4.506,0.012,9.016,0.018,13.525c0,0.521,0.014,1.043,0.178,1.551
	c0.381,1.162,1.25,1.756,2.707,1.814c1.418,0.059,2.766-0.244,4.059-0.826c0.816-0.367,1.037-0.227,1.041,0.656
	c0.006,1.643-0.014,3.287,0.01,4.932c0.008,0.482-0.137,0.777-0.584,1c-3.354,1.676-6.84,1.92-10.363,0.754
	c-2.832-0.938-4.25-3.146-4.764-5.992c-0.379-2.098-0.221-4.221-0.246-6.336C209.781,52.08,209.793,51.083,209.793,50.087z"/>
<path fill-rule="evenodd" clip-rule="evenodd" fill="#1FD660" d="M237.039,49.939c0,4.834,0.002,9.668,0,14.5
	c0,1.064-0.074,1.137-1.146,1.137c-1.969,0.002-3.936-0.016-5.904,0.01c-0.68,0.01-0.926-0.26-0.924-0.928
	c0.012-9.814,0.012-19.629,0.002-29.441c-0.002-0.643,0.248-0.881,0.889-0.871c1.994,0.025,3.988,0.008,5.98,0.01
	c1.045,0,1.104,0.057,1.104,1.09C237.041,40.277,237.039,45.109,237.039,49.939z"/>
<path fill-rule="evenodd" clip-rule="evenodd" fill="#1FD660" d="M233.088,30.503c-2.732,0-4.949-2.197-4.963-4.914
	c-0.014-2.764,2.199-4.98,4.971-4.98c2.773,0.002,4.99,2.23,4.957,4.988C238.021,28.339,235.832,30.505,233.088,30.503z"/>
<path fill-rule="evenodd" clip-rule="evenodd" fill="#FEFEFE" d="M38.373,23.683c9.269,0.059,18.356,1.281,27.167,4.26
	c3.424,1.16,6.712,2.627,9.836,4.453c2.14,1.252,2.846,3.727,1.658,5.785c-1.167,2.023-3.667,2.709-5.774,1.494
	c-6.284-3.617-13.113-5.547-20.219-6.648c-5.58-0.865-11.194-1.145-16.831-0.875c-5.01,0.238-9.958,0.898-14.789,2.307
	c-2.319,0.676-4.479-0.332-5.291-2.408c-0.908-2.324,0.332-4.834,2.771-5.578c2.909-0.887,5.884-1.482,8.887-1.928
	C29.959,23.925,34.16,23.699,38.373,23.683z"/>
<path fill-rule="evenodd" clip-rule="evenodd" fill="#FEFEFE" d="M37.366,39.111c10.271,0.08,20.097,2.088,29.293,6.801
	c0.996,0.508,1.973,1.059,2.924,1.648c1.717,1.063,2.237,3.156,1.235,4.803c-1.012,1.664-3.095,2.195-4.821,1.162
	c-6.47-3.867-13.518-5.965-20.948-6.908c-6.52-0.824-13.012-0.674-19.46,0.637c-1.459,0.299-2.889,0.736-4.336,1.096
	c-1.846,0.457-3.646-0.529-4.215-2.299c-0.606-1.885,0.404-3.82,2.36-4.424c2.713-0.834,5.484-1.432,8.292-1.84
	C30.895,39.318,34.119,39.078,37.366,39.111z"/>
<path fill-rule="evenodd" clip-rule="evenodd" fill="#FEFEFE" d="M37.229,53.701c9.942,0.01,18.808,2.023,26.929,6.898
	c1.083,0.65,1.689,1.563,1.545,2.832c-0.141,1.227-0.858,2.041-2.058,2.391c-0.819,0.24-1.571,0.049-2.283-0.381
	c-4.303-2.602-8.94-4.32-13.875-5.26c-4.479-0.854-8.99-1.025-13.534-0.744c-3.96,0.246-7.855,0.895-11.729,1.725
	c-1.68,0.359-3.077-0.529-3.438-2.146c-0.332-1.49,0.602-2.898,2.208-3.273C26.515,54.457,32.106,53.746,37.229,53.701z"/>
</svg>
